<?xml version="1.0" encoding="UTF-8"?>
<!DOCTYPE svg PUBLIC "-//W3C//DTD SVG 1.1//EN" "http://www.w3.org/Graphics/SVG/1.1/DTD/svg11.dtd">
<!-- Creator: CorelDRAW 2019 (64-Bit) -->
<svg xmlns="http://www.w3.org/2000/svg" xml:space="preserve" width="0.608701in" height="0.280181in" version="1.1" style="shape-rendering:geometricPrecision; text-rendering:geometricPrecision; image-rendering:optimizeQuality; fill-rule:evenodd; clip-rule:evenodd"
viewBox="0 0 608.7 280.18"
 xmlns:xlink="http://www.w3.org/1999/xlink">
 <defs>
  <style type="text/css">
   <![CDATA[
    .fil0 {fill:#FEFEFE;fill-rule:nonzero}
   ]]>
  </style>
 </defs>
 <g id="Layer_x0020_1">
  <metadata id="CorelCorpID_0Corel-Layer"/>
  <g id="_2795218592272">
   <path class="fil0" d="M193.09 179.85c-0.07,0.44 -0.16,0.88 -0.24,1.33 -2.69,13.79 -9.24,32.79 -25.29,44.95l-0.11 0.11c-0.19,0.19 -19.19,19.15 -58.03,25.63 -38.84,-6.48 -57.84,-25.44 -58.02,-25.63l-0.12 -0.11c-16.04,-12.17 -22.6,-31.16 -25.28,-44.95 -0.13,-0.65 -0.24,-1.28 -0.35,-1.92 -0.81,-0.14 -1.56,-0.38 -2.27,-0.71 0.16,0.98 0.33,1.97 0.53,2.98 2.74,14.16 9.49,33.68 26.04,46.26 0.6,0.6 5.35,5.22 14.63,10.63 8.94,5.22 23.95,12.16 44.67,15.59l0.17 0.03 0.17 -0.03c38.58,-6.4 58.07,-25.01 59.3,-26.22 16.55,-12.59 23.3,-32.1 26.04,-46.27 0.17,-0.87 0.32,-1.73 0.46,-2.58 -0.72,0.4 -1.5,0.7 -2.3,0.89z"/>
   <path class="fil0" d="M193.09 179.85c-0.07,0.44 -0.16,0.88 -0.24,1.33 -2.69,13.79 -9.24,32.79 -25.29,44.95l-0.11 0.11c-0.19,0.19 -19.19,19.15 -58.03,25.63 -38.84,-6.48 -57.84,-25.44 -58.02,-25.63l-0.12 -0.11c-16.04,-12.17 -22.6,-31.16 -25.28,-44.95 -0.13,-0.65 -0.24,-1.28 -0.35,-1.92 -0.81,-0.14 -1.56,-0.38 -2.27,-0.71 0.16,0.98 0.33,1.97 0.53,2.98 2.74,14.16 9.49,33.68 26.04,46.26 0.6,0.6 5.35,5.22 14.63,10.63 8.94,5.22 23.95,12.16 44.67,15.59l0.17 0.03 0.17 -0.03c38.58,-6.4 58.07,-25.01 59.3,-26.22 16.55,-12.59 23.3,-32.1 26.04,-46.27 0.17,-0.87 0.32,-1.73 0.46,-2.58 -0.72,0.4 -1.5,0.7 -2.3,0.89z"/>
   <polygon class="fil0" points="199.82,55.91 196.91,55.91 196.91,42.15 110.24,24.41 23.58,42.15 23.58,55.91 20.67,55.91 20.67,39.74 110.24,21.4 110.54,21.46 199.82,39.74 "/>
   <polygon class="fil0" points="199.82,55.91 196.91,55.91 196.91,42.15 110.24,24.41 23.58,42.15 23.58,55.91 20.67,55.91 20.67,39.74 110.24,21.4 110.54,21.46 199.82,39.74 "/>
   <path class="fil0" d="M159.07 162.23c-7.57,3 -14.84,1.13 -15.33,1l-18.2 -3.16 -0.12 -0.02c-6.88,-0.76 -12.11,0.44 -16.04,2.37 -3.93,-1.93 -9.17,-3.13 -16.05,-2.37l-0.12 0.02 -18.2 3.16c-0.49,0.13 -7.77,2.01 -15.33,-1l0.01 0 -1.52 -66.62c2.9,1.74 5.8,2.67 8.32,3.16 6.26,1.2 11.44,-0.06 12.26,-0.27l17.36 -5.02c3.98,-0.45 7.28,-0.11 10.02,0.66l0.05 0c1.3,0.37 3.13,1.04 3.32,1.97 0.25,-1.21 3.31,-2.02 4.35,-2.27 2.48,-0.55 5.39,-0.74 8.8,-0.36l17.36 5.02c0.81,0.22 6,1.47 12.26,0.27 2.53,-0.48 5.43,-1.42 8.32,-3.16l-1.52 66.62 0.01 0zm1.79 -72.69c-8.84,7.12 -19.58,4.26 -20.17,4.09l-17.69 -5.09 -0.12 -0.02c-5.54,-0.63 -9.97,0.09 -13.5,1.44 -3.53,-1.36 -7.98,-2.07 -13.51,-1.44l-0.12 0.02 -17.69 5.09c-0.59,0.17 -11.33,3.03 -20.17,-4.09l-6.06 2.06 2.59 73.44c0.01,0.03 0.02,0.06 0.03,0.09 3.01,1.77 6.03,2.73 8.65,3.22 6.44,1.2 11.77,-0.06 12.61,-0.28l17.87 -3.09c6.11,-0.67 10.67,0.41 14.03,2.09l0.03 0 1.79 1.41 1.7 -1.41 0.02 0c3.35,-1.67 7.92,-2.75 14.03,-2.09l17.86 3.09c0.84,0.22 6.17,1.48 12.61,0.28 2.62,-0.49 5.64,-1.45 8.65,-3.22 0.01,-0.03 0.02,-0.06 0.03,-0.09l2.59 -73.44 -6.07 -2.06z"/>
   <path class="fil0" d="M154.19 165.1l-0.13 6.31 0.01 0c-6.85,3.01 -13.44,1.13 -13.89,0.99l-16.5 -3.16 -0.1 -0.02c-6.24,-0.76 -10.98,0.44 -14.54,2.37 -3.56,-1.93 -8.31,-3.13 -14.54,-2.37l-0.11 0.02 -16.49 3.16c-0.44,0.13 -7.04,2.02 -13.89,-0.99l0.01 0 -0.13 -6.27c-1.74,-0.06 -3.4,-0.4 -4.96,-0.97l0.31 10.07c0.01,0.03 0.02,0.06 0.02,0.09 2.73,1.78 5.46,2.73 7.84,3.22 5.84,1.2 10.67,-0.06 11.43,-0.28l16.19 -3.09c5.54,-0.67 9.68,0.41 12.72,2.09l0.03 0 1.63 1.41 1.54 -1.41 0.02 0c3.04,-1.68 7.17,-2.76 12.71,-2.09l16.19 3.09c0.76,0.22 5.59,1.48 11.43,0.28 2.38,-0.49 5.11,-1.45 7.84,-3.22 0.01,-0.03 0.01,-0.06 0.02,-0.09l0.31 -10.15c-1.6,0.55 -3.28,0.88 -4.96,1.01z"/>
   <path class="fil0" d="M10.48 32.58l0 108.87 -0.02 0.2c-0.05,0.66 -4.69,66.38 30.89,96.53l0.35 0.32c0.05,0.05 5.79,5.78 17.09,12.48 10.28,6.1 27.39,14.26 50.75,18.71 23.35,-4.45 40.46,-12.61 50.75,-18.71 11.3,-6.7 17.04,-12.43 17.1,-12.49l0.33 -0.31c35.65,-30.21 30.94,-95.87 30.89,-96.53l-0.01 -0.41 0 -108.66 -99.07 -22.02 -99.07 22.02zm99.07 247.6l-0.92 -0.17c-25.52,-4.72 -44.21,-13.68 -55.39,-20.37 -11.28,-6.74 -17.45,-12.57 -18.58,-13.69 -16.44,-14.01 -27.58,-36.67 -32.24,-65.54 -3.31,-20.53 -2.29,-37.19 -2.14,-39.36l0 -116.77 109.28 -24.28 109.27 24.28 0 116.77c0.16,2.17 1.17,18.83 -2.14,39.36 -4.65,28.87 -15.8,51.53 -32.24,65.54 -1.13,1.11 -7.31,6.95 -18.58,13.69 -11.19,6.69 -29.88,15.64 -55.39,20.37l-0.92 0.17z"/>
   <path class="fil0" d="M68.28 205.31l-0.1 -0.05 -14.94 -6.07c-0.48,-0.15 -8.46,-2.69 -13.22,-10.36l0.02 -0.05c0,0 0.05,0.01 0.12,0.06 -0.01,-0.01 -0.11,-0.07 -0.28,-0.26 -0.44,-0.72 -0.85,-1.48 -1.22,-2.3 -0.01,0 -0.02,0 -0.04,0 -1.22,-3.47 -2.11,-11.33 1.97,-28.47l0.03 -0.13c0.02,-0.12 1.95,-11.58 3.31,-25.41 1.83,-18.53 1.81,-32.36 -0.04,-41.12 18.48,-9.81 46.61,-31.2 48.06,-32.31l9.36 -6.99c-1.92,-0.93 -3.76,-1.72 -5.87,-0.23 -0.24,0.17 -0.49,0.22 -0.7,0.2l-5 3.74c-0.43,0.33 -43.81,33.31 -57.64,36.25 -10.57,2.24 -17.7,-0.13 -21.2,-7.03 -2.38,-4.7 -0.71,-11.1 -0.69,-11.16l0.04 -0.17c0.44,-2.36 2.48,-4.91 5.2,-6.49 1.96,-1.13 5.98,-2.75 10.89,-0.72 5.96,2.46 8.21,7.41 8.98,9.84l-5.06 2.67c-4.83,1.87 -7.95,0.72 -9.65,-0.46 -0.18,-0.05 -0.35,-0.14 -0.52,-0.3 -0.12,-0.12 -0.24,-0.23 -0.35,-0.34 -0.09,-0.07 -0.18,-0.14 -0.28,-0.21 -0,-0.02 -0,-0.04 -0.01,-0.06 -1.1,-0.97 -1.93,-2.28 -2.11,-3.63 -0.01,-0 -0.02,-0 -0.04,-0 -0.05,0.05 -0.11,0.1 -0.17,0.14 -0.23,0.17 -0.47,0.33 -0.7,0.5 -0.02,0.01 -0.12,0.09 -0.14,0.11 -0.06,0.06 -0.1,0.11 -0.15,0.16l-0 0c-0.04,0.07 -0.08,0.14 -0.12,0.22 -0.03,0.09 -0.09,0.17 -0.15,0.24 -0.46,1.26 -0.55,2.72 -0,3.92l-0.01 0.02c0,0.02 0.04,0.06 0.08,0.12 0.03,0.06 0.07,0.12 0.12,0.17 1.05,1.39 5.96,6.94 15.6,3.15l8 -4.2 -0.24 -1.48c-0.06,-0.41 -1.72,-10.22 -11.73,-14.34 -4.71,-1.93 -9.72,-1.6 -14.11,0.95 -3.7,2.15 -6.41,5.65 -7.09,9.16 -0.23,0.93 -1.95,8.21 1.02,14.08 3.91,7.71 10.79,9.97 17.52,9.97 2.69,0 5.36,-0.36 7.8,-0.88 2.02,-0.43 4.58,-1.43 7.5,-2.82 3.75,20.07 -3.14,62.01 -3.47,63.96 -1.65,6.93 -2.63,12.96 -2.96,18.05 -11.04,-9.94 -6.96,-24.76 -6.78,-25.43l3.32 -16.55 0.01 -0.11c2.71,-18.55 -8.22,-25.44 -8.69,-25.72l-2.6 -1.59c0.22,0.72 0.36,1.48 0.44,2.24 0.12,0.92 0.11,1.89 -0.01,2.84 0.01,0.06 0.01,0.11 0.01,0.17 -0,0.43 -0.07,0.87 -0.15,1.29 -0.03,0.16 -0.09,0.31 -0.13,0.46 -0.08,0.71 -0.23,1.19 -0.26,1.28l-5.67 12.88 -0.04 0.09c-5.35,14.07 1.29,20.69 2.35,21.63 0.02,-0.32 0.07,-0.64 0.15,-0.95 0.34,-1.47 0.98,-2.8 0.75,-4.22 -1.35,-2.46 -2.63,-7.22 0.28,-14.91l5.67 -12.87 0.03 -0.06c0.06,-0.14 0.29,-0.75 0.45,-1.69 2.39,3.17 5.04,8.98 3.67,18.44l-3.24 16.25c-0.2,0.76 -1.43,5.57 -0.83,11.64 0.57,5.84 3,13.93 11.19,19.87 0.07,2.17 0.3,4.11 0.69,5.81 0.01,0.05 0.02,0.09 0.03,0.15 -0.06,-0.01 -0.11,-0.01 -0.16,-0.02 0.17,0.48 0.35,0.94 0.55,1.39 0.61,1.89 1.36,3.13 2.04,3.92 1.67,2.64 3.63,4.7 5.44,6.24 4.49,3.83 8.98,5.37 9.7,5.59l14.67 5.97c8.26,3.94 11.44,9.44 12.66,13.29 -0.84,-0.37 -1.45,-0.5 -1.59,-0.52l-0.06 -0.01 -13.31 -1.98c-7.7,-1.6 -10.77,-5.33 -12,-7.86 -1,-0.99 -2.41,-1.14 -3.75,-1.64 -0.29,-0.11 -0.57,-0.24 -0.83,-0.39 0.17,1.46 1.8,10.95 15.9,13.86l0.09 0.02 13.32 1.98c0.09,0.02 0.55,0.14 1.16,0.46 0.15,0.04 0.3,0.07 0.44,0.14 0.38,0.15 0.76,0.34 1.1,0.57 0.04,0.03 0.09,0.07 0.14,0.1 0.8,0.42 1.58,0.93 2.25,1.54 0.57,0.49 1.09,1.02 1.54,1.61l0.15 -3.17c0.03,-0.57 0.51,-14 -15.7,-21.69z"/>
   <path class="fil0" d="M68.28 205.31l-0.1 -0.05 -14.94 -6.07c-0.48,-0.15 -8.46,-2.69 -13.22,-10.36l0.02 -0.05c0,0 0.05,0.01 0.12,0.06 -0.01,-0.01 -0.11,-0.07 -0.28,-0.26 -0.44,-0.72 -0.85,-1.48 -1.22,-2.3 -0.01,0 -0.02,0 -0.04,0 -1.22,-3.47 -2.11,-11.33 1.97,-28.47l0.03 -0.13c0.02,-0.12 1.95,-11.58 3.31,-25.41 1.83,-18.53 1.81,-32.36 -0.04,-41.12 18.48,-9.81 46.61,-31.2 48.06,-32.31l9.36 -6.99c-1.92,-0.93 -3.76,-1.72 -5.87,-0.23 -0.24,0.17 -0.49,0.22 -0.7,0.2l-5 3.74c-0.43,0.33 -43.81,33.31 -57.64,36.25 -10.57,2.24 -17.7,-0.13 -21.2,-7.03 -2.38,-4.7 -0.71,-11.1 -0.69,-11.16l0.04 -0.17c0.44,-2.36 2.48,-4.91 5.2,-6.49 1.96,-1.13 5.98,-2.75 10.89,-0.72 5.96,2.46 8.21,7.41 8.98,9.84l-5.06 2.67c-4.83,1.87 -7.95,0.72 -9.65,-0.46 -0.18,-0.05 -0.35,-0.14 -0.52,-0.3 -0.12,-0.12 -0.24,-0.23 -0.35,-0.34 -0.09,-0.07 -0.18,-0.14 -0.28,-0.21 -0,-0.02 -0,-0.04 -0.01,-0.06 -1.1,-0.97 -1.93,-2.28 -2.11,-3.63 -0.01,-0 -0.02,-0 -0.04,-0 -0.05,0.05 -0.11,0.1 -0.17,0.14 -0.23,0.17 -0.47,0.33 -0.7,0.5 -0.02,0.01 -0.12,0.09 -0.14,0.11 -0.06,0.06 -0.1,0.11 -0.15,0.16l-0 0c-0.04,0.07 -0.08,0.14 -0.12,0.22 -0.03,0.09 -0.09,0.17 -0.15,0.24 -0.46,1.26 -0.55,2.72 -0,3.92l-0.01 0.02c0,0.02 0.04,0.06 0.08,0.12 0.03,0.06 0.07,0.12 0.12,0.17 1.05,1.39 5.96,6.94 15.6,3.15l8 -4.2 -0.24 -1.48c-0.06,-0.41 -1.72,-10.22 -11.73,-14.34 -4.71,-1.93 -9.72,-1.6 -14.11,0.95 -3.7,2.15 -6.41,5.65 -7.09,9.16 -0.23,0.93 -1.95,8.21 1.02,14.08 3.91,7.71 10.79,9.97 17.52,9.97 2.69,0 5.36,-0.36 7.8,-0.88 2.02,-0.43 4.58,-1.43 7.5,-2.82 3.75,20.07 -3.14,62.01 -3.47,63.96 -1.65,6.93 -2.63,12.96 -2.96,18.05 -11.04,-9.94 -6.96,-24.76 -6.78,-25.43l3.32 -16.55 0.01 -0.11c2.71,-18.55 -8.22,-25.44 -8.69,-25.72l-2.6 -1.59c0.22,0.72 0.36,1.48 0.44,2.24 0.12,0.92 0.11,1.89 -0.01,2.84 0.01,0.06 0.01,0.11 0.01,0.17 -0,0.43 -0.07,0.87 -0.15,1.29 -0.03,0.16 -0.09,0.31 -0.13,0.46 -0.08,0.71 -0.23,1.19 -0.26,1.28l-5.67 12.88 -0.04 0.09c-5.35,14.07 1.29,20.69 2.35,21.63 0.02,-0.32 0.07,-0.64 0.15,-0.95 0.34,-1.47 0.98,-2.8 0.75,-4.22 -1.35,-2.46 -2.63,-7.22 0.28,-14.91l5.67 -12.87 0.03 -0.06c0.06,-0.14 0.29,-0.75 0.45,-1.69 2.39,3.17 5.04,8.98 3.67,18.44l-3.24 16.25c-0.2,0.76 -1.43,5.57 -0.83,11.64 0.57,5.84 3,13.93 11.19,19.87 0.07,2.17 0.3,4.11 0.69,5.81 0.01,0.05 0.02,0.09 0.03,0.15 -0.06,-0.01 -0.11,-0.01 -0.16,-0.02 0.17,0.48 0.35,0.94 0.55,1.39 0.61,1.89 1.36,3.13 2.04,3.92 1.67,2.64 3.63,4.7 5.44,6.24 4.49,3.83 8.98,5.37 9.7,5.59l14.67 5.97c8.26,3.94 11.44,9.44 12.66,13.29 -0.84,-0.37 -1.45,-0.5 -1.59,-0.52l-0.06 -0.01 -13.31 -1.98c-7.7,-1.6 -10.77,-5.33 -12,-7.86 -1,-0.99 -2.41,-1.14 -3.75,-1.64 -0.29,-0.11 -0.57,-0.24 -0.83,-0.39 0.17,1.46 1.8,10.95 15.9,13.86l0.09 0.02 13.32 1.98c0.09,0.02 0.55,0.14 1.16,0.46 0.15,0.04 0.3,0.07 0.44,0.14 0.38,0.15 0.76,0.34 1.1,0.57 0.04,0.03 0.09,0.07 0.14,0.1 0.8,0.42 1.58,0.93 2.25,1.54 0.57,0.49 1.09,1.02 1.54,1.61l0.15 -3.17c0.03,-0.57 0.51,-14 -15.7,-21.69z"/>
   <path class="fil0" d="M68.28 205.31l-0.1 -0.05 -14.94 -6.07c-0.48,-0.15 -8.46,-2.69 -13.22,-10.36l0.02 -0.05c0,0 0.05,0.01 0.12,0.06 -0.01,-0.01 -0.11,-0.07 -0.28,-0.26 -0.44,-0.72 -0.85,-1.48 -1.22,-2.3 -0.01,0 -0.02,0 -0.04,0 -1.22,-3.47 -2.11,-11.33 1.97,-28.47l0.03 -0.13c0.02,-0.12 1.95,-11.58 3.31,-25.41 1.83,-18.53 1.81,-32.36 -0.04,-41.12 18.48,-9.81 46.61,-31.2 48.06,-32.31l9.36 -6.99c-1.92,-0.93 -3.76,-1.72 -5.87,-0.23 -0.24,0.17 -0.49,0.22 -0.7,0.2l-5 3.74c-0.43,0.33 -43.81,33.31 -57.64,36.25 -10.57,2.24 -17.7,-0.13 -21.2,-7.03 -2.38,-4.7 -0.71,-11.1 -0.69,-11.16l0.04 -0.17c0.44,-2.36 2.48,-4.91 5.2,-6.49 1.96,-1.13 5.98,-2.75 10.89,-0.72 5.96,2.46 8.21,7.41 8.98,9.84l-5.06 2.67c-4.83,1.87 -7.95,0.72 -9.65,-0.46 -0.18,-0.05 -0.35,-0.14 -0.52,-0.3 -0.12,-0.12 -0.24,-0.23 -0.35,-0.34 -0.09,-0.07 -0.18,-0.14 -0.28,-0.21 -0,-0.02 -0,-0.04 -0.01,-0.06 -1.1,-0.97 -1.93,-2.28 -2.11,-3.63 -0.01,-0 -0.02,-0 -0.04,-0 -0.05,0.05 -0.11,0.1 -0.17,0.14 -0.23,0.17 -0.47,0.33 -0.7,0.5 -0.02,0.01 -0.12,0.09 -0.14,0.11 -0.06,0.06 -0.1,0.11 -0.15,0.16l-0 0c-0.04,0.07 -0.08,0.14 -0.12,0.22 -0.03,0.09 -0.09,0.17 -0.15,0.24 -0.46,1.26 -0.55,2.72 -0,3.92l-0.01 0.02c0,0.02 0.04,0.06 0.08,0.12 0.03,0.06 0.07,0.12 0.12,0.17 1.05,1.39 5.96,6.94 15.6,3.15l8 -4.2 -0.24 -1.48c-0.06,-0.41 -1.72,-10.22 -11.73,-14.34 -4.71,-1.93 -9.72,-1.6 -14.11,0.95 -3.7,2.15 -6.41,5.65 -7.09,9.16 -0.23,0.93 -1.95,8.21 1.02,14.08 3.91,7.71 10.79,9.97 17.52,9.97 2.69,0 5.36,-0.36 7.8,-0.88 2.02,-0.43 4.58,-1.43 7.5,-2.82 3.75,20.07 -3.14,62.01 -3.47,63.96 -1.65,6.93 -2.63,12.96 -2.96,18.05 -11.04,-9.94 -6.96,-24.76 -6.78,-25.43l3.32 -16.55 0.01 -0.11c2.71,-18.55 -8.22,-25.44 -8.69,-25.72l-2.6 -1.59c0.22,0.72 0.36,1.48 0.44,2.24 0.12,0.92 0.11,1.89 -0.01,2.84 0.01,0.06 0.01,0.11 0.01,0.17 -0,0.43 -0.07,0.87 -0.15,1.29 -0.03,0.16 -0.09,0.31 -0.13,0.46 -0.08,0.71 -0.23,1.19 -0.26,1.28l-5.67 12.88 -0.04 0.09c-5.35,14.07 1.29,20.69 2.35,21.63 0.02,-0.32 0.07,-0.64 0.15,-0.95 0.34,-1.47 0.98,-2.8 0.75,-4.22 -1.35,-2.46 -2.63,-7.22 0.28,-14.91l5.67 -12.87 0.03 -0.06c0.06,-0.14 0.29,-0.75 0.45,-1.69 2.39,3.17 5.04,8.98 3.67,18.44l-3.24 16.25c-0.2,0.76 -1.43,5.57 -0.83,11.64 0.57,5.84 3,13.93 11.19,19.87 0.07,2.17 0.3,4.11 0.69,5.81 0.01,0.05 0.02,0.09 0.03,0.15 -0.06,-0.01 -0.11,-0.01 -0.16,-0.02 0.17,0.48 0.35,0.94 0.55,1.39 0.61,1.89 1.36,3.13 2.04,3.92 1.67,2.64 3.63,4.7 5.44,6.24 4.49,3.83 8.98,5.37 9.7,5.59l14.67 5.97c8.26,3.94 11.44,9.44 12.66,13.29 -0.84,-0.37 -1.45,-0.5 -1.59,-0.52l-0.06 -0.01 -13.31 -1.98c-7.7,-1.6 -10.77,-5.33 -12,-7.86 -1,-0.99 -2.41,-1.14 -3.75,-1.64 -0.29,-0.11 -0.57,-0.24 -0.83,-0.39 0.17,1.46 1.8,10.95 15.9,13.86l0.09 0.02 13.32 1.98c0.09,0.02 0.55,0.14 1.16,0.46 0.15,0.04 0.3,0.07 0.44,0.14 0.38,0.15 0.76,0.34 1.1,0.57 0.04,0.03 0.09,0.07 0.14,0.1 0.8,0.42 1.58,0.93 2.25,1.54 0.57,0.49 1.09,1.02 1.54,1.61l0.15 -3.17c0.03,-0.57 0.51,-14 -15.7,-21.69z"/>
   <path class="fil0" d="M117.21 37.34c13.2,-2.57 21.68,8.67 22.07,9.2l10.88 12.42 0.07 0.07c12.77,13.06 24.41,7.61 24.89,7.37l2.73 -1.32c-0.68,-0.23 -1.34,-0.54 -1.98,-0.92 -0.78,-0.43 -1.53,-1 -2.19,-1.64 -0.05,-0.03 -0.09,-0.06 -0.14,-0.09 -0.32,-0.26 -0.63,-0.56 -0.91,-0.87 -0.11,-0.12 -0.2,-0.25 -0.28,-0.39 -0.51,-0.48 -0.79,-0.88 -0.83,-0.96l-6.68 -12.33 -0.06 -0.09c-7.78,-12.75 -16.73,-10.84 -18.07,-10.46 0.23,0.2 0.45,0.43 0.65,0.67 0.94,1.13 1.6,2.46 2.83,3.07 2.68,0.26 7.1,1.9 11.36,8.86l6.67 12.33 0.03 0.05c0.07,0.13 0.41,0.69 1.05,1.37 -3.83,0.23 -9.85,-0.85 -16.37,-7.5l-10.69 -12.18c-0.46,-0.62 -3.48,-4.46 -8.51,-7.45 -4.99,-2.96 -12.96,-5.61 -22.66,-1.49 1.53,1.27 3.18,2.22 5.19,2.28 0.31,0.01 0.63,0.01 0.94,0z"/>
   <path class="fil0" d="M117.21 37.34c13.2,-2.57 21.68,8.67 22.07,9.2l10.88 12.42 0.07 0.07c12.77,13.06 24.41,7.61 24.89,7.37l2.73 -1.32c-0.68,-0.23 -1.34,-0.54 -1.98,-0.92 -0.78,-0.43 -1.53,-1 -2.19,-1.64 -0.05,-0.03 -0.09,-0.06 -0.14,-0.09 -0.32,-0.26 -0.63,-0.56 -0.91,-0.87 -0.11,-0.12 -0.2,-0.25 -0.28,-0.39 -0.51,-0.48 -0.79,-0.88 -0.83,-0.96l-6.68 -12.33 -0.06 -0.09c-7.78,-12.75 -16.73,-10.84 -18.07,-10.46 0.23,0.2 0.45,0.43 0.65,0.67 0.94,1.13 1.6,2.46 2.83,3.07 2.68,0.26 7.1,1.9 11.36,8.86l6.67 12.33 0.03 0.05c0.07,0.13 0.41,0.69 1.05,1.37 -3.83,0.23 -9.85,-0.85 -16.37,-7.5l-10.69 -12.18c-0.46,-0.62 -3.48,-4.46 -8.51,-7.45 -4.99,-2.96 -12.96,-5.61 -22.66,-1.49 1.53,1.27 3.18,2.22 5.19,2.28 0.31,0.01 0.63,0.01 0.94,0z"/>
   <path class="fil0" d="M117.21 37.34c13.2,-2.57 21.68,8.67 22.07,9.2l10.88 12.42 0.07 0.07c12.77,13.06 24.41,7.61 24.89,7.37l2.73 -1.32c-0.68,-0.23 -1.34,-0.54 -1.98,-0.92 -0.78,-0.43 -1.53,-1 -2.19,-1.64 -0.05,-0.03 -0.09,-0.06 -0.14,-0.09 -0.32,-0.26 -0.63,-0.56 -0.91,-0.87 -0.11,-0.12 -0.2,-0.25 -0.28,-0.39 -0.51,-0.48 -0.79,-0.88 -0.83,-0.96l-6.68 -12.33 -0.06 -0.09c-7.78,-12.75 -16.73,-10.84 -18.07,-10.46 0.23,0.2 0.45,0.43 0.65,0.67 0.94,1.13 1.6,2.46 2.83,3.07 2.68,0.26 7.1,1.9 11.36,8.86l6.67 12.33 0.03 0.05c0.07,0.13 0.41,0.69 1.05,1.37 -3.83,0.23 -9.85,-0.85 -16.37,-7.5l-10.69 -12.18c-0.46,-0.62 -3.48,-4.46 -8.51,-7.45 -4.99,-2.96 -12.96,-5.61 -22.66,-1.49 1.53,1.27 3.18,2.22 5.19,2.28 0.31,0.01 0.63,0.01 0.94,0z"/>
   <path class="fil0" d="M70.93 58.7l0.08 -0.07 12.24 -10.91c0.35,-0.37 6.31,-6.53 14.96,-7.24l0.04 0.04c0,0 -0.03,0.04 -0.1,0.08 0,0 0.12,-0.07 0.34,-0.14 0.81,-0.06 1.65,-0.06 2.5,-0.02 0.01,-0.01 0.02,-0.02 0.02,-0.03 3.46,0.55 10.41,3.51 22.66,15.55l0.1 0.09c0.09,0.07 8.66,7.39 19.47,15.31 13.29,9.74 24.04,16.14 32.02,19.07 -1.46,21.37 2.71,60.85 2.92,62.8l1.18 12.05c1.71,-1.31 3.26,-2.62 3.07,-5.29 -0.02,-0.31 0.05,-0.56 0.18,-0.76l-0.63 -6.44c-0.06,-0.56 -5.99,-56.66 -1.62,-70.84 3.33,-10.82 8.79,-16.23 16.2,-16.06 5.04,0.12 9.5,4.79 9.55,4.83l0.11 0.11c1.74,1.56 2.83,4.69 2.8,7.96 -0.02,2.36 -0.67,6.85 -4.75,10.38 -4.95,4.29 -10.14,3.93 -12.53,3.44l0.28 -5.97c0.82,-5.31 3.25,-7.62 5.05,-8.62 0.04,-0.02 0.08,-0.06 0.12,-0.08 0.12,-0.11 0.26,-0.22 0.45,-0.28 0.03,-0.01 0.06,-0.02 0.09,-0.03 0.2,-0.09 0.4,-0.17 0.61,-0.24 0.1,-0.05 0.21,-0.11 0.32,-0.15 0.15,0.02 0.31,0.01 0.46,-0.06 0.06,0 0.11,-0.01 0.13,-0.01 0.15,0 0.3,0 0.44,0 1.04,-0.02 2.1,0.28 2.99,0.86 0.02,-0 0.03,-0.02 0.04,-0.02 0.09,-1.04 -0.17,-2.09 -0.7,-3.02 -0.44,-0.78 -1.05,-1.17 -1.74,-1.52l-0.05 -0.01c-0.19,-0.03 -0.37,-0.07 -0.56,-0.11 -0.15,-0.03 -0.32,-0.07 -0.48,-0.07 -0.12,-0 -0.24,0.02 -0.36,0.04l-0.01 -0.06c-0.36,0.03 -8.81,0.92 -10.59,12.86l-0.45 9.42 1.33 0.51c0.37,0.15 9.28,3.42 17.58,-3.76 3.91,-3.39 6.09,-8.17 6.14,-13.46 0.04,-4.46 -1.52,-8.67 -4.08,-11.02 -0.65,-0.67 -5.81,-5.82 -12.12,-5.97 -8.27,-0.19 -13.52,5.05 -16.81,11.24 -1.32,2.48 -2.33,5.11 -3.1,7.6 -0.46,1.5 -0.82,3.39 -1.08,5.58 -18.64,-7.3 -48.02,-32.15 -49.43,-33.34 -9.13,-8.96 -16.8,-14.39 -22.79,-16.11 -0.05,-0.02 -0.09,-0.02 -0.14,-0.04 0.03,-0.05 0.06,-0.09 0.09,-0.14 -0.48,-0.07 -0.95,-0.13 -1.42,-0.17 -1.86,-0.35 -3.25,-0.25 -4.24,0 -3,0.28 -5.64,1.09 -7.8,2.02 -5.35,2.31 -8.78,5.73 -9.32,6.28l-12.02 10.7c-7.25,5.74 -13.35,6.04 -17.13,5.3 0.72,-0.6 1.11,-1.11 1.2,-1.22l0.04 -0.05 8.06 -11.36c3.9,-4.91 7.52,-6.65 10.22,-7.14 0.03,-0.02 0.05,-0.04 0.09,-0.04 1.04,-0.38 2.22,-0.5 3.13,-1.19 0.66,-0.5 1.14,-1.22 1.67,-1.87 0.16,-0.2 0.33,-0.38 0.5,-0.55 -2.43,-0.79 -10.27,-2.22 -18.56,8.26l-0.06 0.08 -8.07 11.36c-0.06,0.07 -0.38,0.44 -0.94,0.85 -0.1,0.12 -0.2,0.24 -0.32,0.35 -0.31,0.27 -0.65,0.54 -1.01,0.74 -0.05,0.03 -0.1,0.06 -0.15,0.08 -0.73,0.55 -1.53,1.02 -2.36,1.34 -0.68,0.3 -1.37,0.52 -2.08,0.65l2.56 1.67c0.46,0.3 11.37,7.22 25.57,-4.07z"/>
   <path class="fil0" d="M70.93 58.7l0.08 -0.07 12.24 -10.91c0.35,-0.37 6.31,-6.53 14.96,-7.24l0.04 0.04c0,0 -0.03,0.04 -0.1,0.08 0,0 0.12,-0.07 0.34,-0.14 0.81,-0.06 1.65,-0.06 2.5,-0.02 0.01,-0.01 0.02,-0.02 0.02,-0.03 3.46,0.55 10.41,3.51 22.66,15.55l0.1 0.09c0.09,0.07 8.66,7.39 19.47,15.31 13.29,9.74 24.04,16.14 32.02,19.07 -1.46,21.37 2.71,60.85 2.92,62.8l1.18 12.05c1.71,-1.31 3.26,-2.62 3.07,-5.29 -0.02,-0.31 0.05,-0.56 0.18,-0.76l-0.63 -6.44c-0.06,-0.56 -5.99,-56.66 -1.62,-70.84 3.33,-10.82 8.79,-16.23 16.2,-16.06 5.04,0.12 9.5,4.79 9.55,4.83l0.11 0.11c1.74,1.56 2.83,4.69 2.8,7.96 -0.02,2.36 -0.67,6.85 -4.75,10.38 -4.95,4.29 -10.14,3.93 -12.53,3.44l0.28 -5.97c0.82,-5.31 3.25,-7.62 5.05,-8.62 0.04,-0.02 0.08,-0.06 0.12,-0.08 0.12,-0.11 0.26,-0.22 0.45,-0.28 0.03,-0.01 0.06,-0.02 0.09,-0.03 0.2,-0.09 0.4,-0.17 0.61,-0.24 0.1,-0.05 0.21,-0.11 0.32,-0.15 0.15,0.02 0.31,0.01 0.46,-0.06 0.06,0 0.11,-0.01 0.13,-0.01 0.15,0 0.3,0 0.44,0 1.04,-0.02 2.1,0.28 2.99,0.86 0.02,-0 0.03,-0.02 0.04,-0.02 0.09,-1.04 -0.17,-2.09 -0.7,-3.02 -0.44,-0.78 -1.05,-1.17 -1.74,-1.52l-0.05 -0.01c-0.19,-0.03 -0.37,-0.07 -0.56,-0.11 -0.15,-0.03 -0.32,-0.07 -0.48,-0.07 -0.12,-0 -0.24,0.02 -0.36,0.04l-0.01 -0.06c-0.36,0.03 -8.81,0.92 -10.59,12.86l-0.45 9.42 1.33 0.51c0.37,0.15 9.28,3.42 17.58,-3.76 3.91,-3.39 6.09,-8.17 6.14,-13.46 0.04,-4.46 -1.52,-8.67 -4.08,-11.02 -0.65,-0.67 -5.81,-5.82 -12.12,-5.97 -8.27,-0.19 -13.52,5.05 -16.81,11.24 -1.32,2.48 -2.33,5.11 -3.1,7.6 -0.46,1.5 -0.82,3.39 -1.08,5.58 -18.64,-7.3 -48.02,-32.15 -49.43,-33.34 -9.13,-8.96 -16.8,-14.39 -22.79,-16.11 -0.05,-0.02 -0.09,-0.02 -0.14,-0.04 0.03,-0.05 0.06,-0.09 0.09,-0.14 -0.48,-0.07 -0.95,-0.13 -1.42,-0.17 -1.86,-0.35 -3.25,-0.25 -4.24,0 -3,0.28 -5.64,1.09 -7.8,2.02 -5.35,2.31 -8.78,5.73 -9.32,6.28l-12.02 10.7c-7.25,5.74 -13.35,6.04 -17.13,5.3 0.72,-0.6 1.11,-1.11 1.2,-1.22l0.04 -0.05 8.06 -11.36c3.9,-4.91 7.52,-6.65 10.22,-7.14 0.03,-0.02 0.05,-0.04 0.09,-0.04 1.04,-0.38 2.22,-0.5 3.13,-1.19 0.66,-0.5 1.14,-1.22 1.67,-1.87 0.16,-0.2 0.33,-0.38 0.5,-0.55 -2.43,-0.79 -10.27,-2.22 -18.56,8.26l-0.06 0.08 -8.07 11.36c-0.06,0.07 -0.38,0.44 -0.94,0.85 -0.1,0.12 -0.2,0.24 -0.32,0.35 -0.31,0.27 -0.65,0.54 -1.01,0.74 -0.05,0.03 -0.1,0.06 -0.15,0.08 -0.73,0.55 -1.53,1.02 -2.36,1.34 -0.68,0.3 -1.37,0.52 -2.08,0.65l2.56 1.67c0.46,0.3 11.37,7.22 25.57,-4.07z"/>
   <path class="fil0" d="M70.93 58.7l0.08 -0.07 12.24 -10.91c0.35,-0.37 6.31,-6.53 14.96,-7.24l0.04 0.04c0,0 -0.03,0.04 -0.1,0.08 0,0 0.12,-0.07 0.34,-0.14 0.81,-0.06 1.65,-0.06 2.5,-0.02 0.01,-0.01 0.02,-0.02 0.02,-0.03 3.46,0.55 10.41,3.51 22.66,15.55l0.1 0.09c0.09,0.07 8.66,7.39 19.47,15.31 13.29,9.74 24.04,16.14 32.02,19.07 -1.46,21.37 2.71,60.85 2.92,62.8l1.18 12.05c1.71,-1.31 3.26,-2.62 3.07,-5.29 -0.02,-0.31 0.05,-0.56 0.18,-0.76l-0.63 -6.44c-0.06,-0.56 -5.99,-56.66 -1.62,-70.84 3.33,-10.82 8.79,-16.23 16.2,-16.06 5.04,0.12 9.5,4.79 9.55,4.83l0.11 0.11c1.74,1.56 2.83,4.69 2.8,7.96 -0.02,2.36 -0.67,6.85 -4.75,10.38 -4.95,4.29 -10.14,3.93 -12.53,3.44l0.28 -5.97c0.82,-5.31 3.25,-7.62 5.05,-8.62 0.04,-0.02 0.08,-0.06 0.12,-0.08 0.12,-0.11 0.26,-0.22 0.45,-0.28 0.03,-0.01 0.06,-0.02 0.09,-0.03 0.2,-0.09 0.4,-0.17 0.61,-0.24 0.1,-0.05 0.21,-0.11 0.32,-0.15 0.15,0.02 0.31,0.01 0.46,-0.06 0.06,0 0.11,-0.01 0.13,-0.01 0.15,0 0.3,0 0.44,0 1.04,-0.02 2.1,0.28 2.99,0.86 0.02,-0 0.03,-0.02 0.04,-0.02 0.09,-1.04 -0.17,-2.09 -0.7,-3.02 -0.44,-0.78 -1.05,-1.17 -1.74,-1.52l-0.05 -0.01c-0.19,-0.03 -0.37,-0.07 -0.56,-0.11 -0.15,-0.03 -0.32,-0.07 -0.48,-0.07 -0.12,-0 -0.24,0.02 -0.36,0.04l-0.01 -0.06c-0.36,0.03 -8.81,0.92 -10.59,12.86l-0.45 9.42 1.33 0.51c0.37,0.15 9.28,3.42 17.58,-3.76 3.91,-3.39 6.09,-8.17 6.14,-13.46 0.04,-4.46 -1.52,-8.67 -4.08,-11.02 -0.65,-0.67 -5.81,-5.82 -12.12,-5.97 -8.27,-0.19 -13.52,5.05 -16.81,11.24 -1.32,2.48 -2.33,5.11 -3.1,7.6 -0.46,1.5 -0.82,3.39 -1.08,5.58 -18.64,-7.3 -48.02,-32.15 -49.43,-33.34 -9.13,-8.96 -16.8,-14.39 -22.79,-16.11 -0.05,-0.02 -0.09,-0.02 -0.14,-0.04 0.03,-0.05 0.06,-0.09 0.09,-0.14 -0.48,-0.07 -0.95,-0.13 -1.42,-0.17 -1.86,-0.35 -3.25,-0.25 -4.24,0 -3,0.28 -5.64,1.09 -7.8,2.02 -5.35,2.31 -8.78,5.73 -9.32,6.28l-12.02 10.7c-7.25,5.74 -13.35,6.04 -17.13,5.3 0.72,-0.6 1.11,-1.11 1.2,-1.22l0.04 -0.05 8.06 -11.36c3.9,-4.91 7.52,-6.65 10.22,-7.14 0.03,-0.02 0.05,-0.04 0.09,-0.04 1.04,-0.38 2.22,-0.5 3.13,-1.19 0.66,-0.5 1.14,-1.22 1.67,-1.87 0.16,-0.2 0.33,-0.38 0.5,-0.55 -2.43,-0.79 -10.27,-2.22 -18.56,8.26l-0.06 0.08 -8.07 11.36c-0.06,0.07 -0.38,0.44 -0.94,0.85 -0.1,0.12 -0.2,0.24 -0.32,0.35 -0.31,0.27 -0.65,0.54 -1.01,0.74 -0.05,0.03 -0.1,0.06 -0.15,0.08 -0.73,0.55 -1.53,1.02 -2.36,1.34 -0.68,0.3 -1.37,0.52 -2.08,0.65l2.56 1.67c0.46,0.3 11.37,7.22 25.57,-4.07z"/>
   <path class="fil0" d="M206.3 127.33l-5.46 -12.98c-0.03,-0.09 -0.18,-0.56 -0.24,-1.28 -0.05,-0.15 -0.1,-0.31 -0.13,-0.47 -0.08,-0.42 -0.13,-0.86 -0.13,-1.29 0,-0.06 0.01,-0.12 0.01,-0.17 -0.09,-0.95 -0.09,-1.92 0.04,-2.84 0.09,-0.76 0.24,-1.51 0.48,-2.23l-2.63 1.54c-0.47,0.28 -11.52,6.96 -9.11,25.56l0.02 0.11 3.04 16.61c0.13,0.5 2.32,9 -1.32,17.33l-0.05 0.01c0,0 -0.02,-0.04 -0.02,-0.13 0,0 0,0.14 -0.06,0.39 -0.35,0.77 -0.74,1.54 -1.2,2.31 0,0.01 0.01,0.03 0.02,0.03 -1.08,1.48 -3.1,3.48 -6.89,5.79l-0.31 -0c0,0.06 0,0.13 -0,0.19 -3.7,2.22 -9.04,4.73 -16.7,7.33l-0.13 0.05c-0.1,0.05 -10.33,4.38 -22.16,10.49 -14.78,7.63 -25.43,14.53 -31.72,20.54 -16.31,-12.17 -52.09,-28.94 -53.83,-29.76l-10.44 -5c0.21,2.22 0.49,4.29 2.78,5.47 0.26,0.14 0.43,0.33 0.52,0.54l5.58 2.67c0.5,0.22 49.35,23.12 58.73,34.25 7.17,8.5 8.84,16.2 4.95,22.88 -2.63,4.54 -8.7,6.25 -8.76,6.27l-0.16 0.05c-2.15,0.79 -5.26,0.22 -7.92,-1.46 -1.92,-1.22 -5.26,-4.07 -6.09,-9.57 -1.01,-6.68 1.91,-11.23 3.5,-13.17l4.74 3.26c3.97,3.46 4.6,6.89 4.5,9.03 0.05,0.19 0.07,0.4 0.01,0.63 -0.03,0.16 -0.07,0.32 -0.1,0.48 -0.02,0.4 -0.07,0.8 -0.18,1.19l1.56 0.76 1.72 0.87c0.16,-0.34 3.69,-8.5 -5.17,-16.15l-7.47 -5.17 -1.09 0.96c-0.31,0.27 -7.48,6.74 -5.8,17.93 0.8,5.28 3.6,9.67 7.91,12.39 3.62,2.29 7.85,2.99 11.07,1.83 0.87,-0.25 7.69,-2.36 10.99,-8.04 4.33,-7.45 2.69,-14.87 -0.7,-21 -1.36,-2.46 -3,-4.7 -4.65,-6.66 -0.8,-0.94 -1.84,-1.96 -3.07,-3.02 14.86,-13.74 50.43,-29.01 52.13,-29.73 5.89,-2.01 10.89,-4.11 14.95,-6.3 -2.8,14.05 -16.07,17.95 -16.69,18.13l-15.07 5.72 -0.1 0.04c-16.36,7.31 -16.16,20.76 -16.15,21.32l0.09 3.18c0.47,-0.58 1,-1.1 1.58,-1.57 0.68,-0.59 1.47,-1.09 2.29,-1.49 0.04,-0.04 0.09,-0.07 0.13,-0.1 0.35,-0.22 0.74,-0.4 1.11,-0.54 0.15,-0.06 0.3,-0.09 0.44,-0.13 0.62,-0.31 1.08,-0.42 1.17,-0.44l13.35 -1.68 0.1 -0.01c14.15,-2.59 15.98,-12.03 16.18,-13.49 -0.27,0.15 -0.55,0.27 -0.84,0.37 -1.35,0.47 -2.77,0.59 -3.78,1.55 -1.28,2.5 -4.43,6.16 -12.16,7.59l-13.35 1.67 -0.06 0.01c-0.14,0.02 -0.76,0.13 -1.6,0.48 1.3,-3.81 4.59,-9.24 12.94,-12.99l14.79 -5.63c0.71,-0.21 5.24,-1.64 9.81,-5.37 4.21,-3.43 9.18,-9.46 10.02,-19.13 2.14,-1.42 3.9,-2.87 5.28,-4.35 0.03,-0.04 0.06,-0.07 0.09,-0.11 0.03,0.06 0.06,0.11 0.08,0.16 0.3,-0.41 0.56,-0.82 0.83,-1.23 1.2,-1.55 1.79,-2.88 2.06,-3.91 1.24,-2.9 1.86,-5.74 2.14,-8.18 0.7,-6.06 -0.45,-10.89 -0.64,-11.66l-2.98 -16.3c-1.21,-9.48 1.53,-15.25 3.97,-18.38 0.15,0.94 0.37,1.56 0.43,1.7l0.03 0.06 5.46 12.98c2.79,7.74 1.42,12.48 0.04,14.91 -0.26,1.41 0.37,2.76 0.67,4.23 0.07,0.31 0.11,0.63 0.13,0.95 1.08,-0.93 7.83,-7.41 2.71,-21.59l-0.04 -0.09z"/>
   <path class="fil0" d="M206.3 127.33l-5.46 -12.98c-0.03,-0.09 -0.18,-0.56 -0.24,-1.28 -0.05,-0.15 -0.1,-0.31 -0.13,-0.47 -0.08,-0.42 -0.13,-0.86 -0.13,-1.29 0,-0.06 0.01,-0.12 0.01,-0.17 -0.09,-0.95 -0.09,-1.92 0.04,-2.84 0.09,-0.76 0.24,-1.51 0.48,-2.23l-2.63 1.54c-0.47,0.28 -11.52,6.96 -9.11,25.56l0.02 0.11 3.04 16.61c0.13,0.5 2.32,9 -1.32,17.33l-0.05 0.01c0,0 -0.02,-0.04 -0.02,-0.13 0,0 0,0.14 -0.06,0.39 -0.35,0.77 -0.74,1.54 -1.2,2.31 0,0.01 0.01,0.03 0.02,0.03 -1.08,1.48 -3.1,3.48 -6.89,5.79l-0.31 -0c0,0.06 0,0.13 -0,0.19 -3.7,2.22 -9.04,4.73 -16.7,7.33l-0.13 0.05c-0.1,0.05 -10.33,4.38 -22.16,10.49 -14.78,7.63 -25.43,14.53 -31.72,20.54 -16.31,-12.17 -52.09,-28.94 -53.83,-29.76l-10.44 -5c0.21,2.22 0.49,4.29 2.78,5.47 0.26,0.14 0.43,0.33 0.52,0.54l5.58 2.67c0.5,0.22 49.35,23.12 58.73,34.25 7.17,8.5 8.84,16.2 4.95,22.88 -2.63,4.54 -8.7,6.25 -8.76,6.27l-0.16 0.05c-2.15,0.79 -5.26,0.22 -7.92,-1.46 -1.92,-1.22 -5.26,-4.07 -6.09,-9.57 -1.01,-6.68 1.91,-11.23 3.5,-13.17l4.74 3.26c3.97,3.46 4.6,6.89 4.5,9.03 0.05,0.19 0.07,0.4 0.01,0.63 -0.03,0.16 -0.07,0.32 -0.1,0.48 -0.02,0.4 -0.07,0.8 -0.18,1.19l1.56 0.76 1.72 0.87c0.16,-0.34 3.69,-8.5 -5.17,-16.15l-7.47 -5.17 -1.09 0.96c-0.31,0.27 -7.48,6.74 -5.8,17.93 0.8,5.28 3.6,9.67 7.91,12.39 3.62,2.29 7.85,2.99 11.07,1.83 0.87,-0.25 7.69,-2.36 10.99,-8.04 4.33,-7.45 2.69,-14.87 -0.7,-21 -1.36,-2.46 -3,-4.7 -4.65,-6.66 -0.8,-0.94 -1.84,-1.96 -3.07,-3.02 14.86,-13.74 50.43,-29.01 52.13,-29.73 5.89,-2.01 10.89,-4.11 14.95,-6.3 -2.8,14.05 -16.07,17.95 -16.69,18.13l-15.07 5.72 -0.1 0.04c-16.36,7.31 -16.16,20.76 -16.15,21.32l0.09 3.18c0.47,-0.58 1,-1.1 1.58,-1.57 0.68,-0.59 1.47,-1.09 2.29,-1.49 0.04,-0.04 0.09,-0.07 0.13,-0.1 0.35,-0.22 0.74,-0.4 1.11,-0.54 0.15,-0.06 0.3,-0.09 0.44,-0.13 0.62,-0.31 1.08,-0.42 1.17,-0.44l13.35 -1.68 0.1 -0.01c14.15,-2.59 15.98,-12.03 16.18,-13.49 -0.27,0.15 -0.55,0.27 -0.84,0.37 -1.35,0.47 -2.77,0.59 -3.78,1.55 -1.28,2.5 -4.43,6.16 -12.16,7.59l-13.35 1.67 -0.06 0.01c-0.14,0.02 -0.76,0.13 -1.6,0.48 1.3,-3.81 4.59,-9.24 12.94,-12.99l14.79 -5.63c0.71,-0.21 5.24,-1.64 9.81,-5.37 4.21,-3.43 9.18,-9.46 10.02,-19.13 2.14,-1.42 3.9,-2.87 5.28,-4.35 0.03,-0.04 0.06,-0.07 0.09,-0.11 0.03,0.06 0.06,0.11 0.08,0.16 0.3,-0.41 0.56,-0.82 0.83,-1.23 1.2,-1.55 1.79,-2.88 2.06,-3.91 1.24,-2.9 1.86,-5.74 2.14,-8.18 0.7,-6.06 -0.45,-10.89 -0.64,-11.66l-2.98 -16.3c-1.21,-9.48 1.53,-15.25 3.97,-18.38 0.15,0.94 0.37,1.56 0.43,1.7l0.03 0.06 5.46 12.98c2.79,7.74 1.42,12.48 0.04,14.91 -0.26,1.41 0.37,2.76 0.67,4.23 0.07,0.31 0.11,0.63 0.13,0.95 1.08,-0.93 7.83,-7.41 2.71,-21.59l-0.04 -0.09z"/>
   <path class="fil0" d="M206.3 127.33l-5.46 -12.98c-0.03,-0.09 -0.18,-0.56 -0.24,-1.28 -0.05,-0.15 -0.1,-0.31 -0.13,-0.47 -0.08,-0.42 -0.13,-0.86 -0.13,-1.29 0,-0.06 0.01,-0.12 0.01,-0.17 -0.09,-0.95 -0.09,-1.92 0.04,-2.84 0.09,-0.76 0.24,-1.51 0.48,-2.23l-2.63 1.54c-0.47,0.28 -11.52,6.96 -9.11,25.56l0.02 0.11 3.04 16.61c0.13,0.5 2.32,9 -1.32,17.33l-0.05 0.01c0,0 -0.02,-0.04 -0.02,-0.13 0,0 0,0.14 -0.06,0.39 -0.35,0.77 -0.74,1.54 -1.2,2.31 0,0.01 0.01,0.03 0.02,0.03 -1.08,1.48 -3.1,3.48 -6.89,5.79l-0.31 -0c0,0.06 0,0.13 -0,0.19 -3.7,2.22 -9.04,4.73 -16.7,7.33l-0.13 0.05c-0.1,0.05 -10.33,4.38 -22.16,10.49 -14.78,7.63 -25.43,14.53 -31.72,20.54 -16.31,-12.17 -52.09,-28.94 -53.83,-29.76l-10.44 -5c0.21,2.22 0.49,4.29 2.78,5.47 0.26,0.14 0.43,0.33 0.52,0.54l5.58 2.67c0.5,0.22 49.35,23.12 58.73,34.25 7.17,8.5 8.84,16.2 4.95,22.88 -2.63,4.54 -8.7,6.25 -8.76,6.27l-0.16 0.05c-2.15,0.79 -5.26,0.22 -7.92,-1.46 -1.92,-1.22 -5.26,-4.07 -6.09,-9.57 -1.01,-6.68 1.91,-11.23 3.5,-13.17l4.74 3.26c3.97,3.46 4.6,6.89 4.5,9.03 0.05,0.19 0.07,0.4 0.01,0.63 -0.03,0.16 -0.07,0.32 -0.1,0.48 -0.02,0.4 -0.07,0.8 -0.18,1.19l1.56 0.76 1.72 0.87c0.16,-0.34 3.69,-8.5 -5.17,-16.15l-7.47 -5.17 -1.09 0.96c-0.31,0.27 -7.48,6.74 -5.8,17.93 0.8,5.28 3.6,9.67 7.91,12.39 3.62,2.29 7.85,2.99 11.07,1.83 0.87,-0.25 7.69,-2.36 10.99,-8.04 4.33,-7.45 2.69,-14.87 -0.7,-21 -1.36,-2.46 -3,-4.7 -4.65,-6.66 -0.8,-0.94 -1.84,-1.96 -3.07,-3.02 14.86,-13.74 50.43,-29.01 52.13,-29.73 5.89,-2.01 10.89,-4.11 14.95,-6.3 -2.8,14.05 -16.07,17.95 -16.69,18.13l-15.07 5.72 -0.1 0.04c-16.36,7.31 -16.16,20.76 -16.15,21.32l0.09 3.18c0.47,-0.58 1,-1.1 1.58,-1.57 0.68,-0.59 1.47,-1.09 2.29,-1.49 0.04,-0.04 0.09,-0.07 0.13,-0.1 0.35,-0.22 0.74,-0.4 1.11,-0.54 0.15,-0.06 0.3,-0.09 0.44,-0.13 0.62,-0.31 1.08,-0.42 1.17,-0.44l13.35 -1.68 0.1 -0.01c14.15,-2.59 15.98,-12.03 16.18,-13.49 -0.27,0.15 -0.55,0.27 -0.84,0.37 -1.35,0.47 -2.77,0.59 -3.78,1.55 -1.28,2.5 -4.43,6.16 -12.16,7.59l-13.35 1.67 -0.06 0.01c-0.14,0.02 -0.76,0.13 -1.6,0.48 1.3,-3.81 4.59,-9.24 12.94,-12.99l14.79 -5.63c0.71,-0.21 5.24,-1.64 9.81,-5.37 4.21,-3.43 9.18,-9.46 10.02,-19.13 2.14,-1.42 3.9,-2.87 5.28,-4.35 0.03,-0.04 0.06,-0.07 0.09,-0.11 0.03,0.06 0.06,0.11 0.08,0.16 0.3,-0.41 0.56,-0.82 0.83,-1.23 1.2,-1.55 1.79,-2.88 2.06,-3.91 1.24,-2.9 1.86,-5.74 2.14,-8.18 0.7,-6.06 -0.45,-10.89 -0.64,-11.66l-2.98 -16.3c-1.21,-9.48 1.53,-15.25 3.97,-18.38 0.15,0.94 0.37,1.56 0.43,1.7l0.03 0.06 5.46 12.98c2.79,7.74 1.42,12.48 0.04,14.91 -0.26,1.41 0.37,2.76 0.67,4.23 0.07,0.31 0.11,0.63 0.13,0.95 1.08,-0.93 7.83,-7.41 2.71,-21.59l-0.04 -0.09z"/>
   <path class="fil0" d="M118.79 109.7c-2.22,10.22 -9.07,17.61 -9.14,17.68 0,0 -0,0 -0,0l0 20.62c0,0.28 -0.23,0.52 -0.52,0.52 -0.29,0 -0.53,-0.24 -0.53,-0.52l0 -20.78c-0.99,-1.12 -6.95,-8.13 -9,-17.52 -0.06,-0.28 0.12,-0.56 0.4,-0.62 0.28,-0.06 0.56,0.12 0.63,0.4 1.89,8.69 7.23,15.28 8.57,16.83 1.34,-1.55 6.68,-8.14 8.57,-16.83 0.06,-0.28 0.34,-0.46 0.62,-0.4 0.28,0.06 0.46,0.34 0.4,0.62zm8.64 -3.38c-0.68,0.15 -1.36,0.25 -2.01,0.44 -0.44,0.13 -0.71,0.01 -0.91,-0.33 -0.38,-0.67 -0.76,-1.33 -1.1,-2.02 -0.53,-1.05 -1.38,-1.61 -2.54,-1.67 -0.94,-0.04 -1.87,-0.03 -2.81,0.02 -1.35,0.05 -2.41,0.65 -3.11,1.82 -0.28,0.45 -0.57,0.9 -0.83,1.36 -0.51,0.9 -0.73,0.97 -1.67,0.54 -0.37,-0.16 -0.74,-0.29 -1.3,-0.51 1.43,2.37 1.46,4.67 0.72,7.02 -0.58,1.83 -1.2,3.63 -1.83,5.44 -0.07,0.19 -0.26,0.35 -0.39,0.52 -0.2,-0.17 -0.48,-0.3 -0.57,-0.5 -0.54,-1.2 -1.1,-2.4 -1.57,-3.63 -0.72,-1.91 -1.25,-3.88 -0.77,-5.93 0.2,-0.87 0.63,-1.7 0.98,-2.64 -0.54,0.15 -1.06,0.26 -1.56,0.42 -0.72,0.22 -0.98,0.13 -1.3,-0.56 -0.1,-0.21 -0.17,-0.44 -0.21,-0.67 -0.19,-0.96 -0.78,-1.59 -1.57,-2.06 -3.5,-2.07 -7.89,-1 -10.04,2.43 -0.66,1.05 -0.69,1.06 -1.86,0.55 -0.41,-0.18 -0.82,-0.35 -1.24,-0.5 -0.22,-0.08 -0.46,-0.1 -0.69,-0.15 0.13,0.31 0.29,0.49 0.47,0.67 5.45,5.75 9.6,12.29 12.11,19.85 1.49,4.49 1.87,9 0.96,13.65 -0.52,2.68 -1.29,5.28 -2.25,7.83 -0.14,0.39 -0.18,0.83 -0.3,1.39 0.46,-0.14 0.73,-0.2 0.97,-0.3 0.45,-0.2 0.87,-0.45 1.32,-0.64 0.82,-0.35 1.01,-0.25 1.26,0.58 0.44,1.52 1.13,2.94 2.52,3.79 0.74,0.45 1.64,0.65 2.46,0.97l1.8 0c1.63,-0.35 2.7,-1.34 3.31,-2.87 0.22,-0.56 0.45,-1.11 0.66,-1.66 0.26,-0.68 0.61,-0.79 1.27,-0.41 0.42,0.24 0.86,0.46 1.32,0.62 0.22,0.08 0.49,0.01 0.79,0.01 -0.07,-0.24 -0.1,-0.34 -0.14,-0.44 -1.33,-3.44 -2.35,-6.97 -2.82,-10.64 -0.37,-2.99 -0.48,-5.98 0.26,-8.96 1.52,-6.02 4.29,-11.46 7.72,-16.58 1.18,-1.76 2.64,-3.33 3.97,-5 0.3,-0.37 0.73,-0.69 0.5,-1.3z"/>
   <path class="fil0" d="M145.94 129.36c-0.1,0.13 -0.25,0.19 -0.39,0.19 -0.13,0 -0.25,-0.04 -0.34,-0.13 -0.22,-0.19 -0.24,-0.52 -0.06,-0.74 0.15,-0.18 3.47,-4.24 0.11,-11.48 -0.13,-0.26 -0.01,-0.57 0.25,-0.7 0.26,-0.12 0.57,-0.01 0.7,0.26 3.66,7.9 -0.1,12.42 -0.27,12.6zm-3.84 -3.77c-0.71,1.06 -1.82,1.45 -3.06,1.48 -0.36,0.01 -0.58,-0.16 -0.57,-0.55l0 -1.05c0.04,-1.46 0.13,-2.93 0.59,-4.33 0.15,-0.45 0.37,-0.89 0.63,-1.28 0.38,-0.54 0.92,-0.81 1.61,-0.71 0.74,0.11 1.28,0.49 1.49,1.19 0.56,1.84 0.4,3.63 -0.69,5.26zm-6.5 19.94c-0.06,0.03 -0.13,0.04 -0.19,0.04 -0.21,0 -0.41,-0.13 -0.49,-0.34 -0.17,-0.43 -4,-10.82 -0.91,-28.34 0.04,-0.28 0.32,-0.48 0.6,-0.42 0.29,0.05 0.47,0.32 0.42,0.61 -3.04,17.24 0.82,27.69 0.87,27.79 0.1,0.28 -0.04,0.57 -0.3,0.67zm17.09 -24.28c-0.16,-1.6 -0.57,-3.13 -1.26,-4.58 -0.97,-2.02 -2.33,-3.66 -4.51,-4.46 -1.76,-0.65 -3.59,-0.75 -5.44,-0.6 -1.41,0.11 -2.7,0.6 -3.73,1.65 -0.09,0.09 -0.34,0.1 -0.46,0.04 -0.34,-0.17 -0.64,-0.41 -0.98,-0.6 -0.69,-0.36 -1.35,-0.81 -2.09,-1.01 -1.14,-0.31 -2.14,0.17 -2.94,0.98 -0.61,0.61 -1.14,1.29 -1.71,1.94 -0.5,0.58 -0.57,0.59 -1.23,0.18 -0.46,-0.28 -0.92,-0.58 -1.39,-0.85 -0.1,-0.06 -0.26,-0.01 -0.39,-0.01 0.01,0.11 -0.01,0.24 0.04,0.35 0.24,0.64 0.54,1.26 0.74,1.91 1.2,3.81 1.81,7.72 2.03,11.7 0.16,2.96 0.09,5.9 -0.18,8.85 -0.25,2.7 -0.67,5.37 -1.31,8.01 -0.22,0.92 -0.47,1.83 -0.74,2.89 0.4,-0.19 0.67,-0.3 0.93,-0.44 0.22,-0.12 0.42,-0.28 0.64,-0.42 0.38,-0.25 0.71,-0.23 1,0.15 0.27,0.36 0.57,0.69 0.83,1.05 0.62,0.87 1.35,1.57 2.38,1.9l1.44 0c0.31,-0.1 0.63,-0.19 0.94,-0.3 0.94,-0.31 1.61,-0.96 2.15,-1.75 0.26,-0.4 0.56,-0.78 0.85,-1.15 0.2,-0.26 0.42,-0.28 0.74,-0.13 0.66,0.3 1.35,0.53 2.14,0.83 -0.06,-0.22 -0.06,-0.31 -0.09,-0.39 -1.13,-2.64 -1.7,-5.43 -2.13,-8.25 -0.19,-1.26 -0.32,-2.53 -0.47,-3.79 -0.09,-0.82 -0.03,-0.91 0.81,-0.96 1.37,-0.07 2.75,-0.08 4.1,-0.24 1.89,-0.22 3.72,-0.74 5.35,-1.78 2.12,-1.35 3.24,-3.36 3.72,-5.77 0.11,-0.54 0.2,-1.09 0.3,-1.63l0 -2.97c-0.03,-0.13 -0.09,-0.24 -0.09,-0.37z"/>
   <path class="fil0" d="M85.55 145.23c-0.08,0.2 -0.28,0.34 -0.49,0.34 -0.06,0 -0.12,-0.01 -0.19,-0.04 -0.27,-0.1 -0.41,-0.4 -0.31,-0.67 0.05,-0.11 3.9,-10.58 0.87,-27.79 -0.05,-0.28 0.14,-0.56 0.43,-0.61 0.28,-0.05 0.56,0.14 0.61,0.42 3.09,17.52 -0.75,27.91 -0.91,28.35zm-3.1 -10.76c-0.06,1.91 -0.32,3.81 -0.51,5.7 -0.03,0.31 -0.13,0.63 -0.24,0.93 -0.19,0.54 -0.51,0.96 -1.13,1.03 -0.67,0.07 -1.28,-0.16 -1.54,-0.74 -0.37,-0.82 -0.67,-1.69 -0.82,-2.57 -0.49,-2.9 -0.47,-5.84 -0.52,-10.12 0.09,-1.54 0.24,-4.42 0.41,-7.3 0.02,-0.43 0.13,-0.85 0.24,-1.26 0.15,-0.58 0.51,-1 1.14,-1.09 0.73,-0.1 1.5,0 1.83,0.72 0.37,0.83 0.67,1.73 0.81,2.63 0.6,4.02 0.48,8.06 0.33,12.09zm-7.41 11.06c-0.06,0.03 -0.12,0.04 -0.19,0.04 -0.21,0 -0.41,-0.13 -0.49,-0.34 -0.17,-0.44 -4,-10.83 -0.91,-28.35 0.05,-0.28 0.32,-0.47 0.61,-0.42 0.28,0.05 0.48,0.32 0.42,0.61 -3.04,17.21 0.82,27.69 0.86,27.79 0.1,0.27 -0.04,0.57 -0.31,0.67zm18.82 -3.6c-0.1,-0.53 -0.21,-1.06 -0.39,-1.57 -0.83,-2.43 -1.24,-4.94 -1.36,-7.5 -0.17,-3.63 0.22,-7.23 0.8,-10.81 0.14,-0.88 0.31,-1.76 0.45,-2.64 0.02,-0.14 -0.05,-0.3 -0.08,-0.44 -0.13,0.04 -0.27,0.05 -0.4,0.1 -0.22,0.1 -0.42,0.24 -0.63,0.33 -0.46,0.2 -0.62,0.12 -0.74,-0.37 -0.38,-1.52 -0.85,-3 -1.67,-4.35 -0.9,-1.47 -2.09,-2.6 -3.86,-2.9 -1.93,-0.32 -3.88,-0.3 -5.83,-0.07 -1.06,0.12 -2,0.49 -2.77,1.26 -0.13,0.13 -0.31,0.22 -0.47,0.33 -0.24,0.16 -0.43,0.17 -0.65,-0.08 -2.19,-2.48 -6.14,-2.1 -7.87,1 -0.4,0.71 -0.54,0.75 -1.26,0.36 -0.19,-0.11 -0.38,-0.24 -0.59,-0.33 -0.19,-0.09 -0.39,-0.14 -0.53,-0.19 3.3,11.02 3.05,22.05 0.57,33.19 0.43,-0.2 0.86,-0.43 1.31,-0.63 0.54,-0.24 0.85,-0.15 1.17,0.33 0.24,0.35 0.49,0.7 0.72,1.07 0.56,0.91 1.27,1.63 2.36,1.87l1.34 0c1.07,-0.3 1.96,-0.87 2.67,-1.74 0.07,-0.09 0.32,-0.12 0.44,-0.07 0.44,0.18 0.87,0.39 1.29,0.62 1.04,0.55 2.13,0.98 3.28,1.19l3.17 0c0.62,-0.18 1.3,-0.27 1.86,-0.57 2.89,-1.51 4.63,-3.98 5.6,-7.03 0.23,-0.73 0.55,-0.86 1.17,-0.39 0.25,0.19 0.48,0.41 0.83,0.7 0.04,-0.31 0.11,-0.5 0.07,-0.67z"/>
   <polygon class="fil0" points="112.03,174.4 106.55,174.4 106.55,162.42 112.03,162.42 "/>
   <g>
    <path class="fil0" d="M266.63 97.35c0.18,0 0.18,-0.11 0.15,-0.25l-3.46 -9.83c-0.19,-0.55 -0.37,-0.55 -0.55,0l-3.2 9.83c-0.07,0.18 0,0.25 0.11,0.25l6.96 0zm-3.79 -14.57c0.44,-1.2 0.59,-1.42 0.8,-1.42 0.22,0 0.37,0.18 0.8,1.31 0.55,1.38 6.27,16.43 8.49,21.96 1.31,3.24 2.37,3.83 3.13,4.04 0.55,0.18 1.09,0.22 1.46,0.22 0.22,0 0.36,0.04 0.36,0.22 0,0.22 -0.33,0.29 -0.73,0.29 -0.54,0 -3.2,0 -5.72,-0.07 -0.69,-0.04 -1.09,-0.04 -1.09,-0.25 0,-0.15 0.11,-0.22 0.26,-0.26 0.22,-0.07 0.44,-0.4 0.22,-0.98l-3.39 -8.96c-0.07,-0.15 -0.15,-0.22 -0.33,-0.22l-7.83 0c-0.18,0 -0.29,0.11 -0.36,0.29l-2.19 6.44c-0.33,0.91 -0.51,1.79 -0.51,2.44 0,0.73 0.77,1.06 1.39,1.06l0.36 0c0.25,0 0.36,0.07 0.36,0.22 0,0.22 -0.22,0.29 -0.54,0.29 -0.87,0 -2.44,-0.11 -2.84,-0.11 -0.4,0 -2.41,0.11 -4.11,0.11 -0.48,0 -0.69,-0.07 -0.69,-0.29 0,-0.15 0.15,-0.22 0.33,-0.22 0.26,0 0.76,-0.04 1.06,-0.07 1.68,-0.22 2.4,-1.6 3.06,-3.43l8.27 -22.62z"/>
    <path class="fil0" d="M307.69 100.12c0,-2.95 -0.19,-3.35 -1.64,-3.75 -0.3,-0.07 -0.91,-0.11 -1.24,-0.11 -0.15,0 -0.29,-0.07 -0.29,-0.22 0,-0.22 0.18,-0.29 0.58,-0.29 1.64,0 3.93,0.11 4.12,0.11 0.19,0 2.48,-0.11 3.57,-0.11 0.4,0 0.58,0.07 0.58,0.29 0,0.15 -0.15,0.22 -0.3,0.22 -0.25,0 -0.47,0.04 -0.91,0.11 -0.98,0.18 -1.28,0.8 -1.35,2.07 -0.07,1.17 -0.07,2.26 -0.07,3.79l0 4.08c0,1.64 -0.04,1.71 -0.47,1.97 -2.33,1.24 -5.61,1.64 -7.72,1.64 -2.77,0 -7.94,-0.36 -11.98,-3.9 -2.22,-1.93 -4.33,-5.83 -4.33,-10.38 0,-5.83 2.84,-9.94 6.08,-11.98 3.28,-2.04 6.88,-2.3 9.69,-2.3 2.3,0 4.88,0.47 5.57,0.62 0.77,0.18 2.04,0.33 2.95,0.36 0.36,0.04 0.44,0.19 0.44,0.33 0,0.51 -0.26,1.53 -0.26,5.17 0,0.58 -0.07,0.76 -0.33,0.76 -0.19,0 -0.22,-0.22 -0.26,-0.54 -0.04,-0.51 -0.22,-1.53 -0.76,-2.41 -0.91,-1.38 -3.86,-2.95 -8.56,-2.95 -2.3,0 -5.02,0.22 -7.79,2.41 -2.11,1.67 -3.61,4.99 -3.61,9.25 0,5.13 2.59,8.85 3.86,10.09 2.87,2.8 6.19,3.89 9.54,3.89 1.31,0 3.2,-0.22 4.15,-0.76 0.48,-0.25 0.73,-0.65 0.73,-1.28l0 -6.19z"/>
    <path class="fil0" d="M332 95.6c0,0.19 0.07,0.33 0.25,0.44 0.55,0.33 2.22,0.59 3.83,0.59 0.87,0 1.89,-0.11 2.74,-0.69 1.27,-0.87 2.22,-2.84 2.22,-5.61 0,-4.56 -2.41,-7.28 -6.3,-7.28 -1.09,0 -2.07,0.11 -2.44,0.22 -0.18,0.07 -0.29,0.22 -0.29,0.44l0 11.91zm-2.91 -3.17c0,-5.68 0,-6.7 -0.07,-7.87 -0.07,-1.24 -0.36,-1.82 -1.57,-2.07 -0.29,-0.07 -0.91,-0.11 -1.24,-0.11 -0.15,0 -0.29,-0.07 -0.29,-0.22 0,-0.22 0.18,-0.29 0.58,-0.29 1.64,0 3.93,0.11 4.11,0.11 0.4,0 3.17,-0.11 4.3,-0.11 2.3,0 4.74,0.22 6.67,1.61 0.91,0.65 2.52,2.44 2.52,4.95 0,2.7 -1.13,5.39 -4.41,8.42 2.99,3.82 5.46,7.06 7.58,9.32 1.96,2.08 3.53,2.48 4.44,2.63 0.69,0.11 1.2,0.11 1.42,0.11 0.18,0 0.33,0.11 0.33,0.22 0,0.22 -0.22,0.29 -0.88,0.29l-2.58 0c-2.04,0 -2.95,-0.18 -3.9,-0.69 -1.56,-0.83 -2.84,-2.62 -4.91,-5.35 -1.53,-2 -3.24,-4.44 -3.97,-5.39 -0.15,-0.15 -0.26,-0.22 -0.47,-0.22l-4.48 -0.07c-0.18,0 -0.25,0.11 -0.25,0.29l0 0.87c0,3.5 0,6.37 0.18,7.9 0.11,1.06 0.33,1.86 1.42,2 0.51,0.07 1.31,0.15 1.64,0.15 0.22,0 0.29,0.11 0.29,0.22 0,0.18 -0.18,0.29 -0.58,0.29 -2.01,0 -4.3,-0.11 -4.48,-0.11 -0.04,0 -2.33,0.11 -3.43,0.11 -0.4,0 -0.58,-0.07 -0.58,-0.29 0,-0.11 0.07,-0.22 0.29,-0.22 0.33,0 0.77,-0.07 1.09,-0.15 0.73,-0.14 0.91,-0.94 1.06,-2 0.18,-1.53 0.18,-4.41 0.18,-7.9l0 -6.41z"/>
    <path class="fil0" d="M366.9 98.85c0,3.5 0,6.37 0.19,7.9 0.11,1.06 0.33,1.86 1.42,2 0.51,0.07 1.31,0.15 1.64,0.15 0.22,0 0.29,0.11 0.29,0.22 0,0.18 -0.18,0.29 -0.58,0.29 -2,0 -4.3,-0.11 -4.48,-0.11 -0.19,0 -2.48,0.11 -3.57,0.11 -0.4,0 -0.58,-0.07 -0.58,-0.29 0,-0.11 0.07,-0.22 0.29,-0.22 0.33,0 0.76,-0.07 1.09,-0.15 0.72,-0.14 0.91,-0.94 1.06,-2 0.18,-1.53 0.18,-4.41 0.18,-7.9l0 -6.41c0,-5.68 0,-6.7 -0.07,-7.87 -0.07,-1.24 -0.44,-1.85 -1.24,-2.04 -0.41,-0.11 -0.88,-0.15 -1.13,-0.15 -0.15,0 -0.29,-0.07 -0.29,-0.22 0,-0.22 0.18,-0.29 0.59,-0.29 1.2,0 3.49,0.11 3.68,0.11 0.18,0 2.48,-0.11 3.57,-0.11 0.4,0 0.58,0.07 0.58,0.29 0,0.15 -0.15,0.22 -0.29,0.22 -0.25,0 -0.47,0.04 -0.91,0.11 -0.98,0.18 -1.27,0.8 -1.35,2.07 -0.07,1.17 -0.07,2.19 -0.07,7.87l0 6.41z"/>
    <path class="fil0" d="M386.87 105.98c-3.53,-3.17 -4.41,-7.32 -4.41,-10.78 0,-2.44 0.83,-6.7 4.08,-9.94 2.19,-2.19 5.5,-3.9 11.11,-3.9 1.46,0 3.5,0.11 5.28,0.44 1.39,0.25 2.55,0.47 3.72,0.55 0.4,0.04 0.47,0.18 0.47,0.4 0,0.3 -0.11,0.73 -0.19,2.04 -0.07,1.2 -0.07,3.2 -0.11,3.76 -0.04,0.54 -0.11,0.76 -0.33,0.76 -0.25,0 -0.29,-0.26 -0.29,-0.76 0,-1.43 -0.58,-2.92 -1.53,-3.72 -1.28,-1.09 -4.08,-2.08 -7.28,-2.08 -4.85,0 -7.11,1.42 -8.38,2.66 -2.66,2.55 -3.28,5.79 -3.28,9.51 0,6.96 5.35,13.33 13.15,13.33 2.74,0 4.88,-0.33 6.34,-1.82 0.76,-0.8 1.24,-2.4 1.34,-3.06 0.08,-0.4 0.15,-0.55 0.37,-0.55 0.19,0 0.26,0.26 0.26,0.55 0,0.26 -0.44,3.43 -0.8,4.66 -0.22,0.69 -0.29,0.76 -0.94,1.06 -1.46,0.59 -4.23,0.84 -6.56,0.84 -5.46,0 -9.14,-1.35 -12.02,-3.93z"/>
    <path class="fil0" d="M421.12 92.43c0,-5.68 0,-6.7 -0.07,-7.87 -0.07,-1.24 -0.37,-1.82 -1.57,-2.08 -0.29,-0.07 -0.91,-0.11 -1.24,-0.11 -0.14,0 -0.29,-0.07 -0.29,-0.22 0,-0.22 0.18,-0.3 0.58,-0.3 1.64,0 3.86,0.11 4.19,0.11 0.32,0 2.51,-0.11 3.6,-0.11 0.4,0 0.58,0.07 0.58,0.3 0,0.14 -0.15,0.22 -0.29,0.22 -0.25,0 -0.47,0.04 -0.91,0.11 -0.98,0.15 -1.28,0.8 -1.35,2.08 -0.07,1.17 -0.07,2.19 -0.07,7.87l0 5.1c0,5.25 1.17,7.51 2.73,9 1.79,1.67 3.43,2 5.5,2 2.22,0 4.41,-1.06 5.72,-2.62 1.68,-2.07 2.11,-5.18 2.11,-8.93l0 -4.56c0,-5.68 0,-6.7 -0.07,-7.87 -0.07,-1.24 -0.36,-1.82 -1.57,-2.08 -0.29,-0.07 -0.91,-0.11 -1.24,-0.11 -0.14,0 -0.29,-0.07 -0.29,-0.22 0,-0.22 0.19,-0.3 0.58,-0.3 1.64,0 3.65,0.11 3.86,0.11 0.26,0 1.97,-0.11 3.06,-0.11 0.4,0 0.58,0.07 0.58,0.3 0,0.14 -0.14,0.22 -0.29,0.22 -0.25,0 -0.47,0 -0.91,0.11 -0.98,0.18 -1.28,0.8 -1.35,2.08 -0.07,1.17 -0.07,2.19 -0.07,7.87l0 3.9c0,3.93 -0.44,8.31 -3.35,10.89 -2.62,2.33 -5.35,2.69 -7.5,2.69 -1.24,0 -4.92,-0.15 -7.5,-2.59 -1.78,-1.71 -3.17,-4.26 -3.17,-9.58l0 -5.32z"/>
    <path class="fil0" d="M463.82 98.92c0,5.35 0.15,7.69 0.8,8.34 0.58,0.58 1.53,0.84 4.37,0.84 1.93,0 3.53,-0.04 4.41,-1.09 0.48,-0.59 0.84,-1.5 0.95,-2.19 0.04,-0.29 0.11,-0.47 0.33,-0.47 0.19,0 0.22,0.14 0.22,0.55 0,0.4 -0.26,2.58 -0.55,3.64 -0.26,0.84 -0.37,0.99 -2.3,0.99 -5.24,0 -7.65,-0.22 -9.76,-0.22 -0.33,0 -2.48,0.11 -3.57,0.11 -0.4,0 -0.58,-0.07 -0.58,-0.29 0,-0.11 0.07,-0.22 0.29,-0.22 0.33,0 0.77,-0.07 1.09,-0.15 0.73,-0.15 0.91,-0.95 1.06,-2 0.18,-1.53 0.18,-4.41 0.18,-7.9l0 -6.41c0,-5.68 0,-6.7 -0.07,-7.87 -0.07,-1.24 -0.36,-1.82 -1.57,-2.07 -0.29,-0.07 -0.91,-0.11 -1.24,-0.11 -0.15,0 -0.3,-0.07 -0.3,-0.22 0,-0.22 0.19,-0.3 0.59,-0.3 1.64,0 3.93,0.11 4.11,0.11 0.19,0 2.84,-0.11 3.94,-0.11 0.4,0 0.58,0.07 0.58,0.3 0,0.14 -0.15,0.22 -0.29,0.22 -0.26,0 -0.77,0.04 -1.2,0.11 -1.06,0.18 -1.35,0.8 -1.42,2.07 -0.07,1.17 -0.07,2.19 -0.07,7.87l0 6.48z"/>
    <path class="fil0" d="M495.2 98.85c0,3.5 0,6.37 0.18,7.9 0.11,1.06 0.33,1.86 1.42,2 0.51,0.07 1.31,0.15 1.64,0.15 0.22,0 0.29,0.11 0.29,0.22 0,0.18 -0.18,0.29 -0.58,0.29 -2,0 -4.3,-0.11 -4.48,-0.11 -0.18,0 -2.48,0.11 -3.57,0.11 -0.4,0 -0.58,-0.07 -0.58,-0.29 0,-0.11 0.07,-0.22 0.29,-0.22 0.33,0 0.77,-0.07 1.09,-0.15 0.73,-0.14 0.91,-0.94 1.06,-2 0.18,-1.53 0.18,-4.41 0.18,-7.9l0 -15.41 -5.39 0.07c-2.26,0.04 -3.14,0.3 -3.72,1.17 -0.4,0.62 -0.51,0.88 -0.62,1.13 -0.11,0.29 -0.22,0.36 -0.36,0.36 -0.11,0 -0.18,-0.11 -0.18,-0.33 0,-0.36 0.72,-3.5 0.8,-3.79 0.07,-0.22 0.22,-0.69 0.37,-0.69 0.25,0 0.62,0.36 1.6,0.44 1.06,0.11 2.44,0.18 2.87,0.18l13.66 0c2.33,0 3.31,-0.37 3.61,-0.37 0.19,0 0.19,0.22 0.19,0.44 0,1.09 -0.11,3.61 -0.11,4.01 0,0.33 -0.11,0.47 -0.26,0.47 -0.18,0 -0.25,-0.11 -0.29,-0.62l-0.04 -0.4c-0.15,-1.09 -0.98,-1.93 -4.48,-2.01l-4.59 -0.07 0 15.41z"/>
    <path class="fil0" d="M517.79 92.43c0,-5.68 0,-6.7 -0.07,-7.87 -0.07,-1.24 -0.37,-1.82 -1.57,-2.08 -0.29,-0.07 -0.91,-0.11 -1.24,-0.11 -0.15,0 -0.29,-0.07 -0.29,-0.22 0,-0.22 0.18,-0.3 0.58,-0.3 1.64,0 3.86,0.11 4.19,0.11 0.33,0 2.51,-0.11 3.61,-0.11 0.4,0 0.58,0.07 0.58,0.3 0,0.14 -0.15,0.22 -0.29,0.22 -0.25,0 -0.47,0.04 -0.91,0.11 -0.99,0.15 -1.28,0.8 -1.35,2.08 -0.07,1.17 -0.07,2.19 -0.07,7.87l0 5.1c0,5.25 1.17,7.51 2.73,9 1.78,1.67 3.42,2 5.5,2 2.22,0 4.41,-1.06 5.72,-2.62 1.67,-2.07 2.11,-5.18 2.11,-8.93l0 -4.56c0,-5.68 0,-6.7 -0.07,-7.87 -0.07,-1.24 -0.37,-1.82 -1.57,-2.08 -0.29,-0.07 -0.91,-0.11 -1.24,-0.11 -0.15,0 -0.29,-0.07 -0.29,-0.22 0,-0.22 0.19,-0.3 0.58,-0.3 1.64,0 3.64,0.11 3.86,0.11 0.26,0 1.96,-0.11 3.06,-0.11 0.4,0 0.58,0.07 0.58,0.3 0,0.14 -0.15,0.22 -0.29,0.22 -0.25,0 -0.47,0 -0.91,0.11 -0.98,0.18 -1.27,0.8 -1.35,2.08 -0.07,1.17 -0.07,2.19 -0.07,7.87l0 3.9c0,3.93 -0.44,8.31 -3.35,10.89 -2.62,2.33 -5.35,2.69 -7.5,2.69 -1.24,0 -4.92,-0.15 -7.5,-2.59 -1.78,-1.71 -3.17,-4.26 -3.17,-9.58l0 -5.32z"/>
    <path class="fil0" d="M560.35 95.6c0,0.19 0.07,0.33 0.25,0.44 0.55,0.33 2.22,0.59 3.83,0.59 0.87,0 1.89,-0.11 2.74,-0.69 1.27,-0.87 2.22,-2.84 2.22,-5.61 0,-4.56 -2.41,-7.28 -6.3,-7.28 -1.09,0 -2.07,0.11 -2.44,0.22 -0.18,0.07 -0.29,0.22 -0.29,0.44l0 11.91zm-2.91 -3.17c0,-5.68 0,-6.7 -0.07,-7.87 -0.07,-1.24 -0.36,-1.82 -1.57,-2.07 -0.29,-0.07 -0.91,-0.11 -1.24,-0.11 -0.15,0 -0.29,-0.07 -0.29,-0.22 0,-0.22 0.18,-0.29 0.58,-0.29 1.64,0 3.93,0.11 4.11,0.11 0.4,0 3.17,-0.11 4.3,-0.11 2.3,0 4.74,0.22 6.67,1.61 0.91,0.65 2.52,2.44 2.52,4.95 0,2.7 -1.13,5.39 -4.41,8.42 2.99,3.82 5.46,7.06 7.58,9.32 1.96,2.08 3.53,2.48 4.44,2.63 0.69,0.11 1.2,0.11 1.42,0.11 0.18,0 0.33,0.11 0.33,0.22 0,0.22 -0.22,0.29 -0.87,0.29l-2.59 0c-2.04,0 -2.95,-0.18 -3.9,-0.69 -1.56,-0.83 -2.84,-2.62 -4.91,-5.35 -1.53,-2 -3.24,-4.44 -3.97,-5.39 -0.15,-0.15 -0.26,-0.22 -0.47,-0.22l-4.48 -0.07c-0.18,0 -0.25,0.11 -0.25,0.29l0 0.87c0,3.5 0,6.37 0.18,7.9 0.11,1.06 0.33,1.86 1.42,2 0.51,0.07 1.31,0.15 1.64,0.15 0.22,0 0.3,0.11 0.3,0.22 0,0.18 -0.19,0.29 -0.58,0.29 -2.01,0 -4.3,-0.11 -4.48,-0.11 -0.04,0 -2.33,0.11 -3.43,0.11 -0.4,0 -0.58,-0.07 -0.58,-0.29 0,-0.11 0.07,-0.22 0.29,-0.22 0.33,0 0.77,-0.07 1.09,-0.15 0.73,-0.14 0.91,-0.94 1.06,-2 0.18,-1.53 0.18,-4.41 0.18,-7.9l0 -6.41z"/>
    <path class="fil0" d="M592.19 92.43c0,-5.68 0,-6.7 -0.07,-7.87 -0.08,-1.24 -0.37,-1.82 -1.57,-2.08 -0.29,-0.07 -0.91,-0.11 -1.24,-0.11 -0.15,0 -0.3,-0.07 -0.3,-0.22 0,-0.22 0.18,-0.3 0.59,-0.3 1.64,0 3.93,0.11 4.11,0.11 0.26,0 7.5,0 8.34,-0.04 0.69,-0.04 1.28,-0.11 1.57,-0.18 0.19,-0.04 0.33,-0.18 0.51,-0.18 0.11,0 0.15,0.14 0.15,0.32 0,0.26 -0.18,0.69 -0.29,1.72 -0.04,0.36 -0.11,1.96 -0.18,2.4 -0.04,0.18 -0.11,0.4 -0.26,0.4 -0.22,0 -0.29,-0.18 -0.29,-0.47 0,-0.26 -0.04,-0.88 -0.22,-1.31 -0.25,-0.58 -0.61,-1.02 -2.58,-1.24 -0.62,-0.07 -4.59,-0.11 -4.99,-0.11 -0.15,0 -0.22,0.11 -0.22,0.37l0 10.05c0,0.26 0.04,0.37 0.22,0.37 0.47,0 4.95,0 5.79,-0.07 0.87,-0.07 1.38,-0.14 1.71,-0.51 0.26,-0.29 0.4,-0.47 0.55,-0.47 0.11,0 0.18,0.07 0.18,0.29 0,0.22 -0.18,0.84 -0.29,2.04 -0.07,0.73 -0.15,2.07 -0.15,2.33 0,0.29 0,0.69 -0.26,0.69 -0.18,0 -0.25,-0.15 -0.25,-0.33 0,-0.36 0,-0.73 -0.15,-1.2 -0.15,-0.51 -0.48,-1.13 -1.9,-1.28 -0.98,-0.11 -4.59,-0.18 -5.2,-0.18 -0.18,0 -0.26,0.11 -0.26,0.25l0 3.21c0,1.24 -0.04,5.46 0,6.23 0.11,2.51 0.65,2.99 4.22,2.99 0.95,0 2.55,0 3.5,-0.41 0.95,-0.4 1.39,-1.13 1.64,-2.62 0.07,-0.4 0.15,-0.55 0.33,-0.55 0.22,0 0.22,0.3 0.22,0.55 0,0.29 -0.29,2.77 -0.47,3.53 -0.26,0.95 -0.55,0.95 -1.96,0.95 -5.5,0 -7.94,-0.22 -9,-0.22 -0.18,0 -2.48,0.11 -3.57,0.11 -0.4,0 -0.58,-0.07 -0.58,-0.29 0,-0.11 0.07,-0.22 0.29,-0.22 0.33,0 0.76,-0.07 1.09,-0.15 0.73,-0.15 0.91,-0.94 1.06,-2 0.18,-1.53 0.18,-4.41 0.18,-7.9l0 -6.41z"/>
   </g>
   <g>
    <path class="fil0" d="M256.12 198.4c0,-6.54 0,-7.71 -0.08,-9.05 -0.09,-1.43 -0.42,-2.1 -1.8,-2.39 -0.33,-0.08 -1.05,-0.13 -1.43,-0.13 -0.17,0 -0.33,-0.08 -0.33,-0.25 0,-0.25 0.21,-0.33 0.67,-0.33 1.89,0 4.44,0.13 4.82,0.13 0.38,0 2.89,-0.13 4.15,-0.13 0.46,0 0.67,0.08 0.67,0.33 0,0.17 -0.17,0.25 -0.33,0.25 -0.3,0 -0.55,0.04 -1.05,0.13 -1.13,0.17 -1.47,0.93 -1.55,2.39 -0.08,1.34 -0.08,2.51 -0.08,9.05l0 5.87c0,6.04 1.34,8.63 3.14,10.35 2.05,1.93 3.94,2.31 6.33,2.31 2.56,0 5.07,-1.22 6.58,-3.02 1.93,-2.39 2.43,-5.95 2.43,-10.27l0 -5.24c0,-6.54 0,-7.71 -0.09,-9.05 -0.08,-1.43 -0.42,-2.1 -1.8,-2.39 -0.33,-0.08 -1.05,-0.13 -1.43,-0.13 -0.17,0 -0.34,-0.08 -0.34,-0.25 0,-0.25 0.21,-0.33 0.67,-0.33 1.89,0 4.19,0.13 4.44,0.13 0.29,0 2.26,-0.13 3.52,-0.13 0.46,0 0.67,0.08 0.67,0.33 0,0.17 -0.17,0.25 -0.33,0.25 -0.3,0 -0.55,0 -1.05,0.13 -1.13,0.21 -1.47,0.93 -1.55,2.39 -0.08,1.34 -0.08,2.51 -0.08,9.05l0 4.48c0,4.53 -0.5,9.56 -3.86,12.53 -3.02,2.69 -6.16,3.1 -8.63,3.1 -1.42,0 -5.66,-0.17 -8.63,-2.97 -2.06,-1.97 -3.65,-4.91 -3.65,-11.02l0 -6.12z"/>
    <path class="fil0" d="M302.85 212.22c0.09,3.44 0.51,4.53 1.64,4.86 0.8,0.21 1.72,0.25 2.09,0.25 0.21,0 0.33,0.08 0.33,0.25 0,0.25 -0.25,0.33 -0.75,0.33 -2.39,0 -4.07,-0.13 -4.44,-0.13 -0.38,0 -2.13,0.13 -4.02,0.13 -0.42,0 -0.67,-0.04 -0.67,-0.33 0,-0.17 0.13,-0.25 0.34,-0.25 0.33,0 1.09,-0.04 1.72,-0.25 1.04,-0.3 1.26,-1.51 1.26,-5.32l0.04 -24.01c0,-1.64 0.13,-2.1 0.46,-2.1 0.33,0 1.05,0.92 1.46,1.34 0.63,0.71 6.87,7.46 13.33,14.37 4.15,4.44 8.72,9.56 10.06,10.93l-0.46 -21.28c-0.04,-2.73 -0.33,-3.65 -1.63,-3.98 -0.76,-0.17 -1.72,-0.21 -2.06,-0.21 -0.29,0 -0.33,-0.13 -0.33,-0.3 0,-0.25 0.33,-0.29 0.83,-0.29 1.89,0 3.9,0.13 4.36,0.13 0.46,0 1.84,-0.13 3.56,-0.13 0.46,0 0.76,0.04 0.76,0.29 0,0.17 -0.17,0.3 -0.46,0.3 -0.21,0 -0.5,0 -1,0.13 -1.39,0.3 -1.55,1.22 -1.55,3.73l-0.09 24.56c0,2.76 -0.08,2.98 -0.38,2.98 -0.33,0 -0.83,-0.46 -3.06,-2.68 -0.46,-0.42 -6.5,-6.58 -10.94,-11.36 -4.87,-5.24 -9.6,-10.52 -10.94,-12.03l0.54 20.07z"/>
    <path class="fil0" d="M353.32 205.77c0,4.02 0,7.33 0.21,9.09 0.13,1.21 0.38,2.14 1.63,2.31 0.59,0.08 1.51,0.17 1.89,0.17 0.25,0 0.33,0.13 0.33,0.25 0,0.21 -0.21,0.34 -0.67,0.34 -2.31,0 -4.94,-0.13 -5.15,-0.13 -0.21,0 -2.85,0.13 -4.11,0.13 -0.46,0 -0.67,-0.08 -0.67,-0.34 0,-0.12 0.08,-0.25 0.33,-0.25 0.37,0 0.88,-0.08 1.26,-0.17 0.84,-0.17 1.05,-1.09 1.21,-2.31 0.21,-1.76 0.21,-5.07 0.21,-9.09l0 -7.37c0,-6.54 0,-7.71 -0.08,-9.05 -0.09,-1.43 -0.5,-2.14 -1.43,-2.35 -0.46,-0.13 -1.01,-0.17 -1.3,-0.17 -0.17,0 -0.34,-0.08 -0.34,-0.25 0,-0.25 0.21,-0.33 0.67,-0.33 1.39,0 4.03,0.13 4.24,0.13 0.21,0 2.85,-0.13 4.11,-0.13 0.46,0 0.67,0.08 0.67,0.33 0,0.17 -0.17,0.25 -0.33,0.25 -0.29,0 -0.54,0.04 -1.05,0.13 -1.13,0.21 -1.46,0.93 -1.55,2.39 -0.08,1.34 -0.08,2.51 -0.08,9.05l0 7.37z"/>
    <path class="fil0" d="M385.72 212.81c2.43,-5.62 8.04,-20.24 8.97,-23.26 0.21,-0.63 0.37,-1.22 0.37,-1.59 0,-0.34 -0.13,-0.76 -0.54,-0.96 -0.5,-0.17 -1.13,-0.17 -1.59,-0.17 -0.25,0 -0.46,-0.04 -0.46,-0.25 0,-0.25 0.26,-0.33 0.93,-0.33 1.67,0 3.6,0.13 4.11,0.13 0.25,0 2.05,-0.13 3.27,-0.13 0.46,0 0.71,0.08 0.71,0.3 0,0.21 -0.17,0.29 -0.5,0.29 -0.29,0 -1.21,0 -2.01,0.5 -0.55,0.38 -1.17,1.09 -2.31,3.94 -0.46,1.17 -2.56,6.2 -4.7,11.36 -2.56,6.12 -4.44,10.64 -5.4,12.7 -1.17,2.52 -1.34,3.19 -1.76,3.19 -0.5,0 -0.72,-0.59 -1.51,-2.6l-10.26 -25.69c-0.92,-2.35 -1.55,-2.81 -3.02,-3.22 -0.63,-0.17 -1.34,-0.17 -1.59,-0.17 -0.25,0 -0.33,-0.13 -0.33,-0.29 0,-0.26 0.42,-0.3 1.09,-0.3 2.01,0 4.4,0.13 4.9,0.13 0.42,0 2.3,-0.13 3.9,-0.13 0.75,0 1.13,0.08 1.13,0.3 0,0.21 -0.13,0.29 -0.42,0.29 -0.46,0 -1.22,0.04 -1.59,0.21 -0.46,0.21 -0.54,0.54 -0.54,0.83 0,0.55 0.5,1.85 1.13,3.48l8.05 21.46z"/>
    <path class="fil0" d="M416.11 198.4c0,-6.54 0,-7.71 -0.09,-9.05 -0.08,-1.43 -0.42,-2.1 -1.8,-2.39 -0.33,-0.08 -1.05,-0.13 -1.43,-0.13 -0.17,0 -0.33,-0.08 -0.33,-0.25 0,-0.25 0.21,-0.33 0.67,-0.33 1.89,0 4.52,0.13 4.73,0.13 0.29,0 8.63,0 9.6,-0.04 0.8,-0.04 1.47,-0.13 1.8,-0.21 0.21,-0.04 0.38,-0.21 0.58,-0.21 0.13,0 0.17,0.17 0.17,0.38 0,0.29 -0.21,0.8 -0.34,1.97 -0.04,0.42 -0.13,2.26 -0.21,2.76 -0.04,0.21 -0.13,0.46 -0.3,0.46 -0.25,0 -0.33,-0.21 -0.33,-0.55 0,-0.29 -0.04,-1 -0.25,-1.51 -0.3,-0.67 -0.72,-1.17 -2.98,-1.43 -0.71,-0.08 -5.28,-0.12 -5.74,-0.12 -0.17,0 -0.25,0.12 -0.25,0.41l0 11.57c0,0.3 0.04,0.42 0.25,0.42 0.55,0 5.7,0 6.67,-0.08 1.01,-0.09 1.59,-0.17 1.97,-0.59 0.29,-0.34 0.46,-0.55 0.63,-0.55 0.13,0 0.21,0.08 0.21,0.34 0,0.25 -0.21,0.96 -0.33,2.34 -0.08,0.84 -0.17,2.39 -0.17,2.68 0,0.34 0,0.8 -0.29,0.8 -0.21,0 -0.3,-0.17 -0.3,-0.38 0,-0.42 0,-0.83 -0.17,-1.38 -0.17,-0.59 -0.54,-1.3 -2.18,-1.46 -1.13,-0.13 -5.28,-0.21 -5.99,-0.21 -0.21,0 -0.29,0.13 -0.29,0.3l0 3.69c0,1.43 -0.04,6.29 0,7.17 0.12,2.89 0.76,3.44 4.86,3.44 1.09,0 2.94,0 4.02,-0.46 1.09,-0.46 1.59,-1.3 1.89,-3.02 0.09,-0.46 0.17,-0.63 0.38,-0.63 0.25,0 0.25,0.33 0.25,0.63 0,0.34 -0.33,3.19 -0.54,4.07 -0.3,1.09 -0.63,1.09 -2.26,1.09 -6.33,0 -9.14,-0.25 -10.35,-0.25 -0.21,0 -2.85,0.13 -4.11,0.13 -0.46,0 -0.67,-0.08 -0.67,-0.34 0,-0.12 0.08,-0.25 0.33,-0.25 0.38,0 0.88,-0.08 1.26,-0.17 0.84,-0.17 1.05,-1.09 1.22,-2.3 0.21,-1.76 0.21,-5.07 0.21,-9.09l0 -7.37z"/>
    <path class="fil0" d="M453.41 202.04c0,0.21 0.08,0.37 0.29,0.5 0.63,0.37 2.56,0.67 4.4,0.67 1.01,0 2.18,-0.13 3.14,-0.8 1.47,-1 2.56,-3.26 2.56,-6.45 0,-5.24 -2.77,-8.38 -7.25,-8.38 -1.25,0 -2.39,0.13 -2.8,0.25 -0.21,0.08 -0.33,0.25 -0.33,0.5l0 13.7zm-3.35 -3.65c0,-6.54 0,-7.71 -0.09,-9.05 -0.09,-1.43 -0.42,-2.09 -1.8,-2.39 -0.34,-0.08 -1.05,-0.13 -1.43,-0.13 -0.17,0 -0.33,-0.08 -0.33,-0.25 0,-0.25 0.21,-0.33 0.67,-0.33 1.89,0 4.52,0.12 4.73,0.12 0.46,0 3.65,-0.12 4.94,-0.12 2.64,0 5.45,0.25 7.67,1.84 1.05,0.76 2.89,2.81 2.89,5.7 0,3.1 -1.3,6.2 -5.07,9.68 3.44,4.4 6.29,8.13 8.72,10.73 2.26,2.39 4.06,2.85 5.11,3.02 0.8,0.13 1.38,0.13 1.63,0.13 0.21,0 0.38,0.13 0.38,0.25 0,0.25 -0.25,0.33 -1.01,0.33l-2.97 0c-2.35,0 -3.39,-0.21 -4.48,-0.8 -1.8,-0.96 -3.27,-3.02 -5.66,-6.16 -1.76,-2.3 -3.73,-5.11 -4.57,-6.2 -0.17,-0.17 -0.29,-0.25 -0.55,-0.25l-5.15 -0.09c-0.21,0 -0.29,0.13 -0.29,0.34l0 1c0,4.02 0,7.33 0.21,9.09 0.13,1.22 0.37,2.14 1.63,2.3 0.59,0.09 1.51,0.17 1.89,0.17 0.25,0 0.33,0.13 0.33,0.25 0,0.21 -0.21,0.33 -0.67,0.33 -2.3,0 -4.94,-0.13 -5.15,-0.13 -0.04,0 -2.68,0.13 -3.94,0.13 -0.46,0 -0.67,-0.09 -0.67,-0.33 0,-0.13 0.08,-0.25 0.33,-0.25 0.38,0 0.88,-0.08 1.26,-0.17 0.84,-0.17 1.05,-1.09 1.22,-2.3 0.21,-1.76 0.21,-5.07 0.21,-9.09l0 -7.37z"/>
    <path class="fil0" d="M486.96 217.38c-0.59,-0.29 -0.63,-0.46 -0.63,-1.59 0,-2.09 0.17,-3.77 0.21,-4.44 0.04,-0.46 0.13,-0.67 0.33,-0.67 0.25,0 0.29,0.13 0.29,0.46 0,0.37 0,0.96 0.13,1.55 0.63,3.1 3.39,4.28 6.2,4.28 4.03,0 6,-2.89 6,-5.57 0,-2.89 -1.22,-4.57 -4.82,-7.54l-1.89 -1.55c-4.44,-3.65 -5.45,-6.24 -5.45,-9.09 0,-4.48 3.35,-7.54 8.68,-7.54 1.63,0 2.85,0.17 3.89,0.42 0.8,0.17 1.13,0.2 1.47,0.2 0.33,0 0.42,0.09 0.42,0.3 0,0.21 -0.17,1.59 -0.17,4.44 0,0.67 -0.08,0.96 -0.29,0.96 -0.26,0 -0.3,-0.21 -0.34,-0.54 -0.04,-0.5 -0.3,-1.63 -0.54,-2.1 -0.25,-0.46 -1.39,-2.22 -5.24,-2.22 -2.89,0 -5.15,1.8 -5.15,4.86 0,2.39 1.17,3.81 5.11,7.04l1.17 0.93c4.94,3.9 6.11,6.5 6.11,9.85 0,1.72 -0.67,4.9 -3.56,6.96 -1.8,1.26 -4.06,1.76 -6.33,1.76 -1.97,0 -3.9,-0.29 -5.61,-1.13z"/>
    <path class="fil0" d="M525.43 205.77c0,4.02 0,7.33 0.21,9.09 0.13,1.21 0.38,2.14 1.63,2.31 0.59,0.08 1.51,0.17 1.89,0.17 0.25,0 0.33,0.13 0.33,0.25 0,0.21 -0.21,0.34 -0.67,0.34 -2.31,0 -4.94,-0.13 -5.15,-0.13 -0.21,0 -2.85,0.13 -4.11,0.13 -0.46,0 -0.67,-0.08 -0.67,-0.34 0,-0.12 0.08,-0.25 0.33,-0.25 0.37,0 0.88,-0.08 1.26,-0.17 0.83,-0.17 1.05,-1.09 1.21,-2.31 0.21,-1.76 0.21,-5.07 0.21,-9.09l0 -7.37c0,-6.54 0,-7.71 -0.09,-9.05 -0.08,-1.43 -0.5,-2.14 -1.42,-2.35 -0.46,-0.13 -1.01,-0.17 -1.3,-0.17 -0.17,0 -0.34,-0.08 -0.34,-0.25 0,-0.25 0.21,-0.33 0.67,-0.33 1.39,0 4.03,0.13 4.24,0.13 0.21,0 2.85,-0.13 4.11,-0.13 0.46,0 0.67,0.08 0.67,0.33 0,0.17 -0.17,0.25 -0.33,0.25 -0.3,0 -0.54,0.04 -1.05,0.13 -1.13,0.21 -1.47,0.93 -1.55,2.39 -0.08,1.34 -0.08,2.51 -0.08,9.05l0 7.37z"/>
    <path class="fil0" d="M557.67 205.77c0,4.02 0,7.33 0.21,9.09 0.13,1.21 0.38,2.14 1.63,2.31 0.59,0.08 1.51,0.17 1.89,0.17 0.25,0 0.33,0.13 0.33,0.25 0,0.21 -0.21,0.34 -0.67,0.34 -2.31,0 -4.94,-0.13 -5.15,-0.13 -0.21,0 -2.85,0.13 -4.11,0.13 -0.46,0 -0.67,-0.08 -0.67,-0.34 0,-0.12 0.08,-0.25 0.33,-0.25 0.37,0 0.88,-0.08 1.26,-0.17 0.83,-0.17 1.05,-1.09 1.21,-2.31 0.21,-1.76 0.21,-5.07 0.21,-9.09l0 -17.72 -6.2 0.08c-2.6,0.04 -3.61,0.33 -4.28,1.34 -0.46,0.71 -0.59,1.01 -0.71,1.3 -0.13,0.33 -0.26,0.42 -0.42,0.42 -0.13,0 -0.21,-0.13 -0.21,-0.38 0,-0.42 0.84,-4.02 0.92,-4.36 0.09,-0.25 0.25,-0.8 0.42,-0.8 0.3,0 0.71,0.42 1.84,0.5 1.22,0.13 2.81,0.21 3.31,0.21l15.71 0c2.69,0 3.81,-0.42 4.15,-0.42 0.21,0 0.21,0.25 0.21,0.5 0,1.26 -0.12,4.15 -0.12,4.61 0,0.38 -0.13,0.55 -0.3,0.55 -0.21,0 -0.3,-0.13 -0.33,-0.72l-0.04 -0.46c-0.17,-1.26 -1.13,-2.22 -5.15,-2.31l-5.28 -0.08 0 17.72z"/>
    <path class="fil0" d="M591.65 207.07c0,-2.26 -0.42,-3.19 -0.96,-4.4 -0.3,-0.67 -5.91,-9.89 -7.38,-12.07 -1.05,-1.55 -2.09,-2.6 -2.85,-3.1 -0.63,-0.41 -1.42,-0.67 -1.8,-0.67 -0.21,0 -0.42,-0.08 -0.42,-0.3 0,-0.17 0.17,-0.29 0.54,-0.29 0.8,0 3.94,0.13 4.15,0.13 0.3,0 1.89,-0.13 3.52,-0.13 0.46,0 0.55,0.13 0.55,0.29 0,0.17 -0.25,0.21 -0.63,0.38 -0.33,0.17 -0.55,0.42 -0.55,0.76 0,0.5 0.21,1.01 0.55,1.63 0.67,1.22 6.96,12.03 7.71,13.24 0.8,-1.76 6.12,-10.93 6.96,-12.32 0.54,-0.88 0.71,-1.59 0.71,-2.14 0,-0.59 -0.17,-1.04 -0.67,-1.17 -0.38,-0.12 -0.63,-0.21 -0.63,-0.42 0,-0.17 0.25,-0.25 0.67,-0.25 1.09,0 2.43,0.13 2.76,0.13 0.25,0 3.27,-0.13 4.06,-0.13 0.3,0 0.55,0.08 0.55,0.25 0,0.21 -0.21,0.33 -0.55,0.33 -0.46,0 -1.25,0.17 -1.93,0.59 -0.84,0.5 -1.3,1 -2.22,2.14 -1.38,1.68 -7.25,11.52 -8,13.33 -0.63,1.51 -0.63,2.81 -0.63,4.19l0 3.61c0,0.67 0,2.43 0.12,4.19 0.09,1.22 0.46,2.14 1.72,2.31 0.59,0.08 1.51,0.17 1.89,0.17 0.26,0 0.34,0.13 0.34,0.25 0,0.21 -0.21,0.34 -0.67,0.34 -2.31,0 -4.95,-0.13 -5.16,-0.13 -0.21,0 -2.85,0.13 -4.11,0.13 -0.46,0 -0.67,-0.08 -0.67,-0.34 0,-0.12 0.08,-0.25 0.33,-0.25 0.38,0 0.88,-0.08 1.26,-0.17 0.84,-0.17 1.22,-1.09 1.3,-2.31 0.13,-1.76 0.13,-3.52 0.13,-4.19l0 -3.61z"/>
   </g>
   <g>
    <path class="fil0" d="M339.91 261.23c0,2.74 0,4.99 0.14,6.19 0.09,0.83 0.26,1.45 1.11,1.57 0.4,0.06 1.02,0.11 1.28,0.11 0.17,0 0.23,0.08 0.23,0.17 0,0.14 -0.14,0.22 -0.45,0.22 -1.57,0 -3.37,-0.08 -3.51,-0.08 -0.15,0 -1.94,0.08 -2.8,0.08 -0.31,0 -0.46,-0.06 -0.46,-0.22 0,-0.09 0.06,-0.17 0.23,-0.17 0.26,0 0.6,-0.06 0.85,-0.11 0.57,-0.12 0.72,-0.74 0.83,-1.57 0.14,-1.2 0.14,-3.45 0.14,-6.19l0 -12.06 -4.22 0.06c-1.77,0.03 -2.45,0.23 -2.91,0.91 -0.31,0.48 -0.4,0.69 -0.48,0.89 -0.09,0.22 -0.17,0.28 -0.28,0.28 -0.09,0 -0.15,-0.09 -0.15,-0.26 0,-0.29 0.57,-2.74 0.63,-2.96 0.06,-0.17 0.17,-0.54 0.28,-0.54 0.2,0 0.49,0.28 1.26,0.34 0.83,0.09 1.91,0.14 2.25,0.14l10.7 0c1.83,0 2.59,-0.29 2.82,-0.29 0.14,0 0.14,0.17 0.14,0.35 0,0.85 -0.08,2.82 -0.08,3.13 0,0.26 -0.09,0.37 -0.2,0.37 -0.14,0 -0.2,-0.08 -0.23,-0.48l-0.03 -0.31c-0.11,-0.86 -0.77,-1.52 -3.51,-1.57l-3.59 -0.06 0 12.06z"/>
    <path class="fil0" d="M365.05 260.06c0.14,0 0.14,-0.09 0.11,-0.2l-2.71 -7.7c-0.14,-0.43 -0.28,-0.43 -0.43,0l-2.51 7.7c-0.06,0.14 0,0.2 0.09,0.2l5.45 0zm-2.97 -11.41c0.34,-0.94 0.46,-1.11 0.63,-1.11 0.17,0 0.29,0.14 0.63,1.02 0.43,1.09 4.91,12.87 6.65,17.2 1.02,2.54 1.85,2.99 2.45,3.17 0.43,0.14 0.85,0.17 1.14,0.17 0.17,0 0.29,0.03 0.29,0.17 0,0.17 -0.26,0.22 -0.57,0.22 -0.43,0 -2.51,0 -4.48,-0.06 -0.54,-0.03 -0.86,-0.03 -0.86,-0.2 0,-0.11 0.09,-0.17 0.2,-0.2 0.17,-0.06 0.34,-0.31 0.17,-0.77l-2.65 -7.02c-0.06,-0.11 -0.11,-0.17 -0.26,-0.17l-6.13 0c-0.14,0 -0.23,0.09 -0.28,0.23l-1.71 5.05c-0.26,0.71 -0.4,1.4 -0.4,1.91 0,0.57 0.59,0.83 1.08,0.83l0.28 0c0.2,0 0.29,0.06 0.29,0.17 0,0.17 -0.17,0.22 -0.43,0.22 -0.69,0 -1.91,-0.08 -2.22,-0.08 -0.31,0 -1.88,0.08 -3.22,0.08 -0.37,0 -0.54,-0.06 -0.54,-0.22 0,-0.11 0.11,-0.17 0.26,-0.17 0.2,0 0.6,-0.03 0.83,-0.06 1.31,-0.17 1.88,-1.26 2.4,-2.68l6.47 -17.71z"/>
    <path class="fil0" d="M386.04 261.29c0,4.19 0.11,6.02 0.63,6.54 0.46,0.45 1.2,0.65 3.43,0.65 1.51,0 2.76,-0.03 3.45,-0.85 0.37,-0.46 0.66,-1.17 0.74,-1.71 0.03,-0.23 0.09,-0.37 0.26,-0.37 0.14,0 0.17,0.11 0.17,0.43 0,0.31 -0.2,2.02 -0.43,2.85 -0.2,0.66 -0.28,0.77 -1.8,0.77 -4.11,0 -5.99,-0.17 -7.64,-0.17 -0.26,0 -1.94,0.08 -2.8,0.08 -0.31,0 -0.46,-0.06 -0.46,-0.22 0,-0.09 0.06,-0.17 0.23,-0.17 0.26,0 0.6,-0.06 0.85,-0.11 0.57,-0.12 0.71,-0.74 0.83,-1.57 0.14,-1.2 0.14,-3.45 0.14,-6.19l0 -5.02c0,-4.45 0,-5.25 -0.06,-6.16 -0.06,-0.97 -0.29,-1.43 -1.23,-1.63 -0.22,-0.06 -0.71,-0.09 -0.97,-0.09 -0.11,0 -0.23,-0.06 -0.23,-0.17 0,-0.17 0.14,-0.23 0.46,-0.23 1.28,0 3.08,0.09 3.22,0.09 0.14,0 2.22,-0.09 3.08,-0.09 0.31,0 0.46,0.06 0.46,0.23 0,0.11 -0.11,0.17 -0.23,0.17 -0.2,0 -0.6,0.03 -0.94,0.09 -0.83,0.14 -1.06,0.63 -1.11,1.63 -0.06,0.91 -0.06,1.71 -0.06,6.16l0 5.07z"/>
    <path class="fil0" d="M404.42 269.13c-0.4,-0.2 -0.43,-0.31 -0.43,-1.09 0,-1.43 0.11,-2.57 0.14,-3.02 0.03,-0.31 0.09,-0.46 0.23,-0.46 0.17,0 0.2,0.09 0.2,0.31 0,0.26 0,0.66 0.09,1.06 0.43,2.11 2.31,2.91 4.22,2.91 2.74,0 4.08,-1.97 4.08,-3.79 0,-1.97 -0.83,-3.11 -3.28,-5.13l-1.28 -1.06c-3.02,-2.48 -3.71,-4.25 -3.71,-6.19 0,-3.05 2.28,-5.13 5.91,-5.13 1.11,0 1.94,0.11 2.65,0.28 0.54,0.11 0.77,0.14 1,0.14 0.23,0 0.29,0.06 0.29,0.2 0,0.14 -0.12,1.09 -0.12,3.02 0,0.46 -0.06,0.66 -0.2,0.66 -0.17,0 -0.2,-0.14 -0.23,-0.37 -0.03,-0.35 -0.2,-1.11 -0.37,-1.43 -0.17,-0.31 -0.94,-1.51 -3.57,-1.51 -1.97,0 -3.51,1.22 -3.51,3.31 0,1.63 0.8,2.59 3.48,4.79l0.8 0.63c3.37,2.65 4.16,4.42 4.16,6.7 0,1.17 -0.45,3.34 -2.43,4.74 -1.22,0.85 -2.76,1.2 -4.31,1.2 -1.34,0 -2.65,-0.2 -3.82,-0.77z"/>
    <path class="fil0" d="M435.28 260.06c0.14,0 0.14,-0.09 0.11,-0.2l-2.71 -7.7c-0.14,-0.43 -0.29,-0.43 -0.43,0l-2.51 7.7c-0.06,0.14 0,0.2 0.09,0.2l5.44 0zm-2.96 -11.41c0.34,-0.94 0.46,-1.11 0.63,-1.11 0.17,0 0.29,0.14 0.63,1.02 0.43,1.09 4.91,12.87 6.65,17.2 1.03,2.54 1.85,2.99 2.45,3.17 0.43,0.14 0.86,0.17 1.14,0.17 0.17,0 0.29,0.03 0.29,0.17 0,0.17 -0.26,0.22 -0.57,0.22 -0.43,0 -2.51,0 -4.48,-0.06 -0.54,-0.03 -0.85,-0.03 -0.85,-0.2 0,-0.11 0.09,-0.17 0.2,-0.2 0.17,-0.06 0.34,-0.31 0.17,-0.77l-2.65 -7.02c-0.06,-0.11 -0.11,-0.17 -0.26,-0.17l-6.13 0c-0.14,0 -0.23,0.09 -0.29,0.23l-1.71 5.05c-0.26,0.71 -0.4,1.4 -0.4,1.91 0,0.57 0.6,0.83 1.08,0.83l0.29 0c0.2,0 0.29,0.06 0.29,0.17 0,0.17 -0.17,0.22 -0.43,0.22 -0.69,0 -1.91,-0.08 -2.22,-0.08 -0.31,0 -1.88,0.08 -3.22,0.08 -0.37,0 -0.54,-0.06 -0.54,-0.22 0,-0.11 0.11,-0.17 0.26,-0.17 0.2,0 0.6,-0.03 0.83,-0.06 1.31,-0.17 1.88,-1.26 2.4,-2.68l6.47 -17.71z"/>
    <path class="fil0" d="M454.65 265.63c0.06,2.34 0.34,3.08 1.11,3.31 0.54,0.14 1.17,0.17 1.43,0.17 0.14,0 0.23,0.06 0.23,0.17 0,0.17 -0.17,0.23 -0.52,0.23 -1.62,0 -2.76,-0.09 -3.02,-0.09 -0.26,0 -1.45,0.09 -2.74,0.09 -0.28,0 -0.45,-0.03 -0.45,-0.23 0,-0.11 0.08,-0.17 0.22,-0.17 0.23,0 0.74,-0.03 1.17,-0.17 0.71,-0.2 0.85,-1.03 0.85,-3.62l0.03 -16.34c0,-1.11 0.08,-1.43 0.31,-1.43 0.23,0 0.71,0.63 1,0.91 0.43,0.49 4.68,5.08 9.07,9.78 2.83,3.02 5.94,6.5 6.85,7.44l-0.31 -14.49c-0.03,-1.85 -0.23,-2.48 -1.11,-2.71 -0.51,-0.11 -1.17,-0.14 -1.4,-0.14 -0.2,0 -0.23,-0.09 -0.23,-0.2 0,-0.17 0.23,-0.2 0.57,-0.2 1.28,0 2.65,0.09 2.96,0.09 0.31,0 1.26,-0.09 2.43,-0.09 0.31,0 0.52,0.03 0.52,0.2 0,0.11 -0.11,0.2 -0.31,0.2 -0.14,0 -0.34,0 -0.69,0.08 -0.94,0.2 -1.06,0.83 -1.06,2.54l-0.06 16.71c0,1.88 -0.06,2.02 -0.25,2.02 -0.23,0 -0.57,-0.31 -2.08,-1.82 -0.31,-0.29 -4.42,-4.48 -7.44,-7.73 -3.31,-3.57 -6.53,-7.16 -7.44,-8.19l0.37 13.66z"/>
    <path class="fil0" d="M489 259.29c0,3.03 0.03,5.65 0.06,6.19 0.03,0.71 0.08,1.85 0.31,2.17 0.37,0.54 1.48,1.14 4.85,1.14 2.65,0 5.11,-0.97 6.79,-2.65 1.48,-1.45 2.28,-4.19 2.28,-6.81 0,-3.62 -1.57,-5.96 -2.74,-7.19 -2.68,-2.82 -5.93,-3.22 -9.33,-3.22 -0.57,0 -1.63,0.08 -1.85,0.2 -0.26,0.11 -0.34,0.26 -0.34,0.57 -0.03,0.97 -0.03,3.88 -0.03,6.07l0 3.54zm-2.4 -3.08c0,-4.45 0,-5.25 -0.06,-6.16 -0.06,-0.97 -0.28,-1.43 -1.22,-1.63 -0.23,-0.06 -0.72,-0.09 -0.97,-0.09 -0.11,0 -0.23,-0.06 -0.23,-0.17 0,-0.17 0.15,-0.23 0.46,-0.23 1.28,0 3.08,0.09 3.22,0.09 0.34,0 2.14,-0.09 3.85,-0.09 2.82,0 8.04,-0.26 11.44,3.25 1.43,1.48 2.76,3.85 2.76,7.24 0,3.59 -1.48,6.36 -3.08,8.04 -1.23,1.28 -3.79,3.28 -8.64,3.28 -2.45,0 -6.05,-0.34 -6.33,-0.34 -0.15,0 -1.94,0.08 -2.8,0.08 -0.31,0 -0.46,-0.06 -0.46,-0.22 0,-0.09 0.06,-0.17 0.23,-0.17 0.26,0 0.6,-0.06 0.85,-0.11 0.57,-0.12 0.72,-0.74 0.83,-1.57 0.14,-1.2 0.14,-3.45 0.14,-6.19l0 -5.02z"/>
    <path class="fil0" d="M518.19 256.21c0,-4.45 0,-5.25 -0.05,-6.16 -0.06,-0.97 -0.29,-1.43 -1.23,-1.63 -0.23,-0.06 -0.72,-0.09 -0.97,-0.09 -0.11,0 -0.23,-0.06 -0.23,-0.17 0,-0.17 0.15,-0.23 0.46,-0.23 1.29,0 3.08,0.09 3.22,0.09 0.2,0 5.87,0 6.53,-0.03 0.54,-0.03 1,-0.09 1.22,-0.14 0.15,-0.03 0.26,-0.14 0.4,-0.14 0.09,0 0.11,0.11 0.11,0.25 0,0.2 -0.14,0.54 -0.23,1.34 -0.03,0.28 -0.09,1.54 -0.14,1.88 -0.03,0.14 -0.09,0.31 -0.2,0.31 -0.17,0 -0.23,-0.14 -0.23,-0.37 0,-0.2 -0.03,-0.68 -0.17,-1.03 -0.2,-0.45 -0.48,-0.8 -2.02,-0.97 -0.48,-0.06 -3.59,-0.08 -3.91,-0.08 -0.11,0 -0.17,0.08 -0.17,0.28l0 7.87c0,0.2 0.03,0.28 0.17,0.28 0.37,0 3.88,0 4.54,-0.06 0.68,-0.06 1.08,-0.11 1.34,-0.4 0.2,-0.23 0.31,-0.37 0.43,-0.37 0.08,0 0.14,0.06 0.14,0.23 0,0.17 -0.14,0.66 -0.23,1.6 -0.06,0.57 -0.11,1.62 -0.11,1.82 0,0.23 0,0.54 -0.2,0.54 -0.14,0 -0.2,-0.11 -0.2,-0.26 0,-0.29 0,-0.57 -0.11,-0.94 -0.11,-0.4 -0.37,-0.89 -1.48,-1 -0.77,-0.09 -3.59,-0.14 -4.08,-0.14 -0.14,0 -0.2,0.09 -0.2,0.2l0 2.51c0,0.97 -0.03,4.28 0,4.88 0.09,1.97 0.52,2.34 3.31,2.34 0.74,0 2,0 2.74,-0.31 0.74,-0.31 1.08,-0.89 1.28,-2.05 0.06,-0.31 0.11,-0.43 0.26,-0.43 0.17,0 0.17,0.23 0.17,0.43 0,0.23 -0.23,2.17 -0.37,2.76 -0.2,0.74 -0.43,0.74 -1.54,0.74 -4.31,0 -6.22,-0.17 -7.05,-0.17 -0.14,0 -1.94,0.08 -2.8,0.08 -0.31,0 -0.46,-0.05 -0.46,-0.22 0,-0.09 0.06,-0.17 0.23,-0.17 0.26,0 0.6,-0.06 0.85,-0.11 0.57,-0.12 0.71,-0.74 0.83,-1.57 0.14,-1.2 0.14,-3.45 0.14,-6.19l0 -5.02z"/>
   </g>
   <g>
    <path class="fil0" d="M327.3 152.83c0,3.5 0,6.37 0.18,7.91 0.11,1.06 0.33,1.86 1.42,2 0.51,0.07 1.31,0.15 1.64,0.15 0.22,0 0.29,0.11 0.29,0.22 0,0.19 -0.18,0.29 -0.58,0.29 -2,0 -4.3,-0.11 -4.48,-0.11 -0.19,0 -2.48,0.11 -3.57,0.11 -0.4,0 -0.58,-0.07 -0.58,-0.29 0,-0.11 0.07,-0.22 0.29,-0.22 0.33,0 0.76,-0.07 1.09,-0.15 0.73,-0.15 0.91,-0.95 1.06,-2 0.19,-1.53 0.19,-4.41 0.19,-7.91l0 -15.41 -5.39 0.07c-2.26,0.04 -3.13,0.29 -3.72,1.17 -0.4,0.62 -0.51,0.87 -0.62,1.13 -0.11,0.29 -0.22,0.37 -0.36,0.37 -0.11,0 -0.18,-0.11 -0.18,-0.33 0,-0.36 0.72,-3.5 0.8,-3.79 0.07,-0.22 0.22,-0.69 0.36,-0.69 0.25,0 0.62,0.36 1.6,0.44 1.06,0.11 2.44,0.18 2.88,0.18l13.66 0c2.33,0 3.31,-0.37 3.61,-0.37 0.19,0 0.19,0.22 0.19,0.44 0,1.09 -0.11,3.61 -0.11,4 0,0.33 -0.11,0.48 -0.26,0.48 -0.19,0 -0.26,-0.11 -0.29,-0.62l-0.04 -0.4c-0.15,-1.09 -0.98,-1.93 -4.48,-2l-4.59 -0.07 0 15.41z"/>
    <path class="fil0" d="M352 146.43c0,-5.68 0,-6.7 -0.07,-7.87 -0.07,-1.24 -0.37,-1.82 -1.57,-2.07 -0.29,-0.07 -0.91,-0.11 -1.24,-0.11 -0.14,0 -0.29,-0.07 -0.29,-0.22 0,-0.22 0.18,-0.29 0.58,-0.29 1.64,0 3.93,0.11 4.11,0.11 0.26,0 7.51,0 8.34,-0.04 0.69,-0.04 1.28,-0.11 1.57,-0.19 0.19,-0.04 0.33,-0.18 0.51,-0.18 0.11,0 0.15,0.15 0.15,0.33 0,0.26 -0.18,0.69 -0.29,1.71 -0.04,0.36 -0.11,1.97 -0.18,2.41 -0.04,0.18 -0.11,0.4 -0.26,0.4 -0.22,0 -0.29,-0.18 -0.29,-0.47 0,-0.26 -0.04,-0.87 -0.22,-1.31 -0.26,-0.58 -0.62,-1.02 -2.59,-1.24 -0.62,-0.07 -4.59,-0.11 -4.99,-0.11 -0.15,0 -0.22,0.11 -0.22,0.37l0 10.06c0,0.25 0.04,0.36 0.22,0.36 0.47,0 4.95,0 5.79,-0.07 0.87,-0.07 1.39,-0.15 1.71,-0.51 0.26,-0.29 0.4,-0.47 0.55,-0.47 0.11,0 0.18,0.07 0.18,0.29 0,0.22 -0.18,0.84 -0.29,2.04 -0.07,0.73 -0.15,2.07 -0.15,2.33 0,0.29 0,0.69 -0.26,0.69 -0.18,0 -0.26,-0.15 -0.26,-0.33 0,-0.36 0,-0.73 -0.15,-1.2 -0.15,-0.51 -0.47,-1.13 -1.89,-1.28 -0.98,-0.11 -4.59,-0.19 -5.21,-0.19 -0.18,0 -0.26,0.11 -0.26,0.26l0 3.2c0,1.24 -0.04,5.46 0,6.23 0.11,2.52 0.66,2.99 4.23,2.99 0.94,0 2.55,0 3.5,-0.4 0.95,-0.4 1.38,-1.13 1.64,-2.62 0.07,-0.4 0.15,-0.55 0.33,-0.55 0.22,0 0.22,0.29 0.22,0.55 0,0.29 -0.29,2.77 -0.47,3.54 -0.26,0.94 -0.55,0.94 -1.97,0.94 -5.5,0 -7.94,-0.22 -9,-0.22 -0.18,0 -2.47,0.11 -3.57,0.11 -0.4,0 -0.58,-0.07 -0.58,-0.29 0,-0.11 0.07,-0.22 0.29,-0.22 0.33,0 0.76,-0.07 1.09,-0.15 0.73,-0.15 0.91,-0.95 1.06,-2 0.18,-1.53 0.18,-4.41 0.18,-7.91l0 -6.41z"/>
    <path class="fil0" d="M381.77 159.97c-3.53,-3.17 -4.41,-7.32 -4.41,-10.78 0,-2.44 0.83,-6.7 4.08,-9.94 2.19,-2.19 5.5,-3.89 11.11,-3.89 1.46,0 3.5,0.11 5.28,0.43 1.38,0.26 2.55,0.47 3.72,0.55 0.4,0.04 0.47,0.18 0.47,0.4 0,0.29 -0.11,0.73 -0.18,2.04 -0.07,1.2 -0.07,3.2 -0.11,3.75 -0.04,0.55 -0.11,0.76 -0.33,0.76 -0.26,0 -0.29,-0.25 -0.29,-0.76 0,-1.42 -0.58,-2.92 -1.53,-3.72 -1.28,-1.09 -4.08,-2.07 -7.28,-2.07 -4.85,0 -7.1,1.42 -8.38,2.66 -2.66,2.55 -3.28,5.79 -3.28,9.51 0,6.96 5.35,13.33 13.15,13.33 2.73,0 4.88,-0.33 6.34,-1.82 0.76,-0.8 1.24,-2.41 1.35,-3.06 0.07,-0.4 0.15,-0.55 0.37,-0.55 0.18,0 0.25,0.26 0.25,0.55 0,0.25 -0.44,3.43 -0.8,4.66 -0.22,0.69 -0.29,0.76 -0.94,1.06 -1.46,0.58 -4.23,0.84 -6.56,0.84 -5.46,0 -9.14,-1.35 -12.02,-3.94z"/>
    <path class="fil0" d="M440.13 152.83c0,3.5 0,6.37 0.18,7.91 0.11,1.06 0.33,1.86 1.42,2 0.51,0.07 1.31,0.15 1.64,0.15 0.22,0 0.29,0.11 0.29,0.22 0,0.19 -0.18,0.29 -0.58,0.29 -2,0 -4.3,-0.11 -4.48,-0.11 -0.18,0 -2.48,0.11 -3.57,0.11 -0.4,0 -0.59,-0.07 -0.59,-0.29 0,-0.11 0.07,-0.22 0.29,-0.22 0.33,0 0.76,-0.07 1.09,-0.15 0.72,-0.15 0.91,-0.95 1.06,-2 0.18,-1.53 0.18,-4.41 0.18,-7.91l0 -3.82c0,-0.15 -0.11,-0.22 -0.22,-0.22l-15.44 0c-0.11,0 -0.22,0.04 -0.22,0.22l0 3.82c0,3.5 0,6.37 0.18,7.91 0.11,1.06 0.33,1.86 1.42,2 0.51,0.07 1.31,0.15 1.64,0.15 0.22,0 0.29,0.11 0.29,0.22 0,0.19 -0.18,0.29 -0.58,0.29 -2,0 -4.3,-0.11 -4.48,-0.11 -0.18,0 -2.48,0.11 -3.57,0.11 -0.4,0 -0.58,-0.07 -0.58,-0.29 0,-0.11 0.07,-0.22 0.29,-0.22 0.33,0 0.77,-0.07 1.09,-0.15 0.73,-0.15 0.91,-0.95 1.06,-2 0.18,-1.53 0.18,-4.41 0.18,-7.91l0 -6.41c0,-5.68 0,-6.7 -0.07,-7.87 -0.07,-1.24 -0.37,-1.82 -1.57,-2.07 -0.29,-0.07 -0.91,-0.11 -1.24,-0.11 -0.15,0 -0.29,-0.07 -0.29,-0.22 0,-0.22 0.18,-0.29 0.58,-0.29 1.64,0 3.94,0.11 4.12,0.11 0.18,0 2.48,-0.11 3.57,-0.11 0.4,0 0.59,0.07 0.59,0.29 0,0.15 -0.15,0.22 -0.29,0.22 -0.26,0 -0.48,0.04 -0.91,0.11 -0.98,0.18 -1.28,0.8 -1.35,2.07 -0.07,1.17 -0.07,2.19 -0.07,7.87l0 0.76c0,0.19 0.11,0.22 0.22,0.22l15.44 0c0.11,0 0.22,-0.04 0.22,-0.22l0 -0.76c0,-5.68 0,-6.7 -0.07,-7.87 -0.07,-1.24 -0.36,-1.82 -1.57,-2.07 -0.29,-0.07 -0.91,-0.11 -1.24,-0.11 -0.15,0 -0.29,-0.07 -0.29,-0.22 0,-0.22 0.19,-0.29 0.59,-0.29 1.64,0 3.93,0.11 4.11,0.11 0.18,0 2.48,-0.11 3.57,-0.11 0.4,0 0.58,0.07 0.58,0.29 0,0.15 -0.14,0.22 -0.29,0.22 -0.26,0 -0.47,0.04 -0.91,0.11 -0.98,0.18 -1.28,0.8 -1.35,2.07 -0.07,1.17 -0.07,2.19 -0.07,7.87l0 6.41z"/>
    <path class="fil0" d="M461.38 158.44c0.07,2.99 0.44,3.93 1.42,4.23 0.69,0.18 1.49,0.22 1.82,0.22 0.19,0 0.29,0.07 0.29,0.22 0,0.22 -0.22,0.29 -0.65,0.29 -2.07,0 -3.53,-0.11 -3.86,-0.11 -0.33,0 -1.86,0.11 -3.5,0.11 -0.36,0 -0.58,-0.04 -0.58,-0.29 0,-0.15 0.1,-0.22 0.29,-0.22 0.29,0 0.95,-0.04 1.49,-0.22 0.91,-0.26 1.09,-1.31 1.09,-4.63l0.04 -20.87c0,-1.42 0.11,-1.82 0.4,-1.82 0.29,0 0.91,0.8 1.28,1.17 0.54,0.62 5.97,6.48 11.58,12.5 3.61,3.86 7.58,8.31 8.74,9.5l-0.4 -18.5c-0.04,-2.37 -0.3,-3.17 -1.42,-3.46 -0.66,-0.15 -1.49,-0.18 -1.78,-0.18 -0.26,0 -0.3,-0.11 -0.3,-0.26 0,-0.22 0.3,-0.25 0.73,-0.25 1.64,0 3.39,0.11 3.79,0.11 0.4,0 1.6,-0.11 3.09,-0.11 0.4,0 0.65,0.04 0.65,0.25 0,0.15 -0.14,0.26 -0.4,0.26 -0.18,0 -0.43,0 -0.87,0.11 -1.2,0.26 -1.34,1.06 -1.34,3.24l-0.07 21.34c0,2.41 -0.07,2.59 -0.33,2.59 -0.29,0 -0.73,-0.4 -2.66,-2.33 -0.4,-0.37 -5.65,-5.72 -9.51,-9.87 -4.22,-4.56 -8.34,-9.15 -9.5,-10.45l0.47 17.44z"/>
    <path class="fil0" d="M505.24 152.83c0,3.5 0,6.37 0.18,7.91 0.11,1.06 0.33,1.86 1.42,2 0.51,0.07 1.31,0.15 1.64,0.15 0.22,0 0.29,0.11 0.29,0.22 0,0.19 -0.18,0.29 -0.58,0.29 -2.01,0 -4.3,-0.11 -4.48,-0.11 -0.19,0 -2.48,0.11 -3.57,0.11 -0.4,0 -0.58,-0.07 -0.58,-0.29 0,-0.11 0.07,-0.22 0.29,-0.22 0.33,0 0.76,-0.07 1.09,-0.15 0.73,-0.15 0.91,-0.95 1.06,-2 0.18,-1.53 0.18,-4.41 0.18,-7.91l0 -6.41c0,-5.68 0,-6.7 -0.07,-7.87 -0.07,-1.24 -0.44,-1.86 -1.24,-2.04 -0.41,-0.11 -0.88,-0.14 -1.13,-0.14 -0.15,0 -0.29,-0.07 -0.29,-0.22 0,-0.22 0.18,-0.29 0.59,-0.29 1.2,0 3.49,0.11 3.68,0.11 0.18,0 2.47,-0.11 3.57,-0.11 0.4,0 0.59,0.07 0.59,0.29 0,0.15 -0.15,0.22 -0.3,0.22 -0.25,0 -0.47,0.04 -0.91,0.11 -0.98,0.18 -1.27,0.8 -1.35,2.07 -0.07,1.17 -0.07,2.19 -0.07,7.87l0 6.41z"/>
    <path class="fil0" d="M525.21 159.97c-3.53,-3.17 -4.41,-7.32 -4.41,-10.78 0,-2.44 0.84,-6.7 4.08,-9.94 2.19,-2.19 5.5,-3.89 11.11,-3.89 1.46,0 3.5,0.11 5.28,0.43 1.39,0.26 2.55,0.47 3.72,0.55 0.4,0.04 0.47,0.18 0.47,0.4 0,0.29 -0.11,0.73 -0.18,2.04 -0.07,1.2 -0.07,3.2 -0.11,3.75 -0.04,0.55 -0.11,0.76 -0.33,0.76 -0.26,0 -0.3,-0.25 -0.3,-0.76 0,-1.42 -0.58,-2.92 -1.53,-3.72 -1.28,-1.09 -4.08,-2.07 -7.28,-2.07 -4.85,0 -7.11,1.42 -8.38,2.66 -2.66,2.55 -3.28,5.79 -3.28,9.51 0,6.96 5.35,13.33 13.15,13.33 2.73,0 4.88,-0.33 6.34,-1.82 0.76,-0.8 1.24,-2.41 1.35,-3.06 0.07,-0.4 0.15,-0.55 0.37,-0.55 0.18,0 0.25,0.26 0.25,0.55 0,0.25 -0.44,3.43 -0.8,4.66 -0.22,0.69 -0.29,0.76 -0.94,1.06 -1.46,0.58 -4.22,0.84 -6.56,0.84 -5.46,0 -9.14,-1.35 -12.02,-3.94z"/>
    <path class="fil0" d="M570.61 151.34c0.18,0 0.18,-0.11 0.15,-0.26l-3.46 -9.83c-0.18,-0.55 -0.37,-0.55 -0.55,0l-3.2 9.83c-0.07,0.18 0,0.26 0.11,0.26l6.96 0zm-3.79 -14.57c0.44,-1.2 0.58,-1.42 0.8,-1.42 0.22,0 0.37,0.18 0.8,1.31 0.55,1.39 6.26,16.43 8.49,21.97 1.31,3.24 2.37,3.82 3.13,4.04 0.55,0.18 1.09,0.22 1.46,0.22 0.22,0 0.37,0.04 0.37,0.22 0,0.22 -0.33,0.29 -0.73,0.29 -0.55,0 -3.21,0 -5.72,-0.07 -0.69,-0.04 -1.09,-0.04 -1.09,-0.25 0,-0.15 0.11,-0.22 0.26,-0.26 0.22,-0.07 0.44,-0.4 0.22,-0.98l-3.39 -8.96c-0.07,-0.14 -0.15,-0.22 -0.33,-0.22l-7.83 0c-0.19,0 -0.3,0.11 -0.37,0.3l-2.19 6.44c-0.33,0.91 -0.51,1.78 -0.51,2.44 0,0.73 0.76,1.06 1.39,1.06l0.36 0c0.26,0 0.37,0.07 0.37,0.22 0,0.22 -0.22,0.29 -0.55,0.29 -0.87,0 -2.44,-0.11 -2.84,-0.11 -0.4,0 -2.4,0.11 -4.11,0.11 -0.47,0 -0.69,-0.07 -0.69,-0.29 0,-0.15 0.15,-0.22 0.33,-0.22 0.26,0 0.76,-0.04 1.06,-0.07 1.67,-0.22 2.4,-1.6 3.06,-3.42l8.27 -22.62z"/>
    <path class="fil0" d="M597.43 152.91c0,5.35 0.15,7.69 0.8,8.34 0.58,0.59 1.53,0.84 4.37,0.84 1.93,0 3.53,-0.04 4.41,-1.09 0.48,-0.58 0.84,-1.49 0.95,-2.19 0.04,-0.29 0.11,-0.48 0.33,-0.48 0.18,0 0.22,0.15 0.22,0.55 0,0.4 -0.25,2.59 -0.54,3.64 -0.26,0.84 -0.37,0.98 -2.3,0.98 -5.24,0 -7.65,-0.22 -9.76,-0.22 -0.33,0 -2.48,0.11 -3.57,0.11 -0.4,0 -0.58,-0.07 -0.58,-0.29 0,-0.11 0.07,-0.22 0.29,-0.22 0.33,0 0.77,-0.07 1.09,-0.15 0.73,-0.15 0.91,-0.95 1.06,-2 0.18,-1.53 0.18,-4.41 0.18,-7.91l0 -6.41c0,-5.68 0,-6.7 -0.07,-7.87 -0.07,-1.24 -0.36,-1.82 -1.57,-2.07 -0.29,-0.07 -0.91,-0.11 -1.24,-0.11 -0.15,0 -0.3,-0.07 -0.3,-0.22 0,-0.22 0.19,-0.29 0.59,-0.29 1.64,0 3.93,0.11 4.11,0.11 0.18,0 2.84,-0.11 3.94,-0.11 0.4,0 0.58,0.07 0.58,0.29 0,0.15 -0.15,0.22 -0.29,0.22 -0.26,0 -0.77,0.04 -1.2,0.11 -1.06,0.18 -1.35,0.8 -1.42,2.07 -0.07,1.17 -0.07,2.19 -0.07,7.87l0 6.48z"/>
    <path class="fil0" d="M259.42 141.13c-0.99,-2.13 -1.48,-4.11 -1.48,-5.96 0,-2.09 0.61,-4.02 1.84,-5.81 1.23,-1.79 2.79,-3.23 4.69,-4.33 1.9,-1.1 3.87,-1.65 5.91,-1.65 2.28,0 4.19,0.63 5.71,1.89 1.52,1.26 2.29,2.77 2.29,4.53 0,1.31 -0.37,2.54 -1.1,3.65 -0.74,1.12 -1.51,1.68 -2.32,1.68 -0.4,0 -0.59,-0.21 -0.59,-0.63 0,-0.15 0.11,-0.49 0.33,-1.02 0.35,-0.85 0.53,-1.72 0.53,-2.6 0,-1.31 -0.54,-2.39 -1.61,-3.21 -1.07,-0.83 -2.37,-1.24 -3.88,-1.24 -2.44,0 -4.71,1 -6.83,3.01 -2.12,2.01 -3.18,4.31 -3.18,6.9 0,1.16 0.15,2.14 0.46,2.94 0.31,0.8 0.59,1.32 0.84,1.56 0.25,0.24 0.61,0.36 1.07,0.36 3.03,0 4.54,0.87 4.54,2.63 0,0.44 -0.16,0.85 -0.48,1.25 -0.31,0.39 -0.78,0.59 -1.4,0.59 -0.68,0 -1.55,-0.45 -2.6,-1.35 -1.12,-0.96 -2.22,-1.45 -3.29,-1.45 -1.38,0 -2.69,0.69 -3.93,2.06 -1.24,1.37 -1.86,3 -1.86,4.88 0,3.67 1.82,7.13 5.46,10.39 3.64,3.26 8.17,4.89 13.59,4.89 5.13,0 9.53,-1.28 13.18,-3.83 3.65,-2.56 5.48,-5.61 5.48,-9.17 0,-2.37 -0.9,-4.43 -2.7,-6.17 -1.8,-1.74 -4.24,-2.61 -7.31,-2.61 -2.48,0 -4.69,0.68 -6.63,2.04 -1.94,1.36 -2.91,3.06 -2.91,5.1 0,1.22 0.35,2.24 1.06,3.03 0.7,0.79 1.43,1.19 2.17,1.19 0.86,0 1.28,-0.46 1.28,-1.39l-0.03 -0.39c-0.02,-0.28 -0.04,-0.48 -0.04,-0.59 0,-0.96 0.26,-1.76 0.79,-2.39 0.53,-0.62 1.19,-0.93 2.01,-0.93 0.77,0 1.44,0.26 2.01,0.8 0.57,0.54 0.86,1.29 0.86,2.26 0,1.38 -0.48,2.54 -1.43,3.46 -0.96,0.92 -2.18,1.38 -3.67,1.38 -1.78,0 -3.31,-0.63 -4.59,-1.89 -1.28,-1.26 -1.92,-2.81 -1.92,-4.66 0,-2.7 1.13,-5.15 3.39,-7.37 2.26,-2.22 6.37,-3.33 12.31,-3.33 5.33,0 9.2,-0.73 11.62,-2.2 2.41,-1.45 3.62,-3.65 3.62,-6.62 0,-1.75 -0.54,-3.2 -1.61,-4.33 -1.08,-1.13 -2.44,-1.7 -4.08,-1.7 -0.81,0 -1.42,0.11 -1.82,0.35 -0.41,0.23 -0.61,0.59 -0.61,1.07 0,0.31 0.2,0.74 0.59,1.31 0.5,0.72 0.76,1.43 0.76,2.11 0,0.81 -0.31,1.52 -0.94,2.14 -0.63,0.61 -1.4,0.93 -2.32,0.93 -1.09,0 -1.93,-0.35 -2.5,-1.06 -0.57,-0.7 -0.86,-1.53 -0.86,-2.47 0,-1.49 0.73,-2.83 2.19,-4.01 1.46,-1.19 3.32,-1.78 5.58,-1.78 2.32,0 4.26,0.85 5.81,2.55 1.55,1.7 2.32,3.75 2.32,6.14 0,2.26 -0.67,4.32 -1.99,6.19 -1.33,1.86 -3.01,3.18 -5.04,3.95 -2.03,0.76 -4.88,1.22 -8.54,1.35 3.51,2.48 5.26,5.66 5.26,9.54 0,2.92 -1.07,5.74 -3.23,8.46 -2.15,2.72 -4.75,4.74 -7.81,6.06 -3.06,1.31 -6.8,1.97 -11.21,1.97 -3.57,0 -6.47,-0.39 -8.69,-1.17 -2.22,-0.78 -4.33,-1.91 -6.33,-3.41 -2.01,-1.49 -3.59,-3.32 -4.74,-5.48 -1.15,-2.16 -1.72,-4.48 -1.72,-6.96 0,-3.02 0.87,-5.57 2.6,-7.63 1.73,-2.06 4.3,-3.33 7.7,-3.81z"/>
   </g>
   <g>
    <path class="fil0" d="M264.87 56.73c2.85,0 5.61,0.15 8.35,-0.03 5.46,-0.36 9.93,-4.6 10.81,-10.04 0.96,-5.95 -1.76,-11.42 -6.8,-13.69 -3.99,-1.8 -8.17,-0.99 -12.37,-1.22l0 24.99zm-7.55 -31.93l3.21 0c3.76,0 7.53,-0.04 11.3,0.02 9.4,0.15 17.02,6.18 19.2,15.13 2.72,11.13 -5.05,22.45 -16.43,23.61 -4.18,0.43 -8.43,0.23 -12.64,0.26 -0.39,0 -0.94,-0.34 -1.16,-0.69 -1.14,-1.8 -2.21,-3.65 -3.26,-5.5 -0.21,-0.37 -0.32,-0.85 -0.32,-1.29 -0.02,-10.21 -0.01,-20.42 -0.01,-30.63 0,-0.22 0.04,-0.44 0.09,-0.92z"/>
    <path class="fil0" d="M469.49 49.34c-2.06,-5.21 -4.03,-10.2 -6.01,-15.21 -0.11,0.02 -0.22,0.04 -0.32,0.06 -1.88,5.01 -3.76,10.02 -5.69,15.15l12.02 0zm13.2 14.51c-2.45,0 -4.72,0.04 -6.98,-0.04 -0.34,-0.01 -0.83,-0.48 -0.98,-0.84 -0.81,-1.93 -1.55,-3.87 -2.26,-5.83 -0.31,-0.85 -0.71,-1.27 -1.74,-1.26 -4.81,0.07 -9.62,0.05 -14.43,0 -0.92,-0 -1.38,0.26 -1.67,1.16 -0.65,1.97 -1.4,3.92 -2.17,5.86 -0.14,0.36 -0.52,0.89 -0.8,0.89 -2.34,0.07 -4.69,0.04 -7.23,0.04 0.94,-2.47 1.81,-4.74 2.69,-7.01 3.95,-10.19 7.92,-20.36 11.83,-30.56 0.42,-1.1 0.92,-1.59 2.14,-1.51 1.72,0.11 3.45,-0.03 5.17,0.07 0.45,0.02 1.13,0.43 1.29,0.83 5.03,12.48 10.01,24.99 14.99,37.49 0.07,0.16 0.08,0.34 0.17,0.69z"/>
    <path class="fil0" d="M402.7 31.7l0 12.79c2.88,0 5.65,0 8.41,-0 0.5,0 1,0 1.49,-0.06 3.27,-0.41 5.58,-3.04 5.68,-6.44 0.09,-3.15 -1.92,-5.93 -5.09,-6.22 -3.45,-0.31 -6.95,-0.07 -10.48,-0.07zm-0.15 19.55l0 12.51 -7.56 0 0 -1.54c0,-11.93 0.02,-23.87 -0.03,-35.8 -0.01,-1.32 0.37,-1.68 1.67,-1.65 5.35,0.07 10.72,-0.07 16.06,0.09 7.37,0.22 12.98,6.32 12.79,13.68 -0.17,6.49 -5.12,11.93 -11.59,12.48 -3.16,0.28 -6.35,0.17 -9.52,0.24 -0.54,0.01 -1.07,0 -1.83,0z"/>
    <path class="fil0" d="M346.67 63.77l-7.53 0c0,-2.98 -0.1,-5.87 0.03,-8.76 0.1,-2.3 -0.44,-4.31 -1.5,-6.35 -3.84,-7.41 -7.55,-14.88 -11.3,-22.33 -0.22,-0.43 -0.41,-0.87 -0.71,-1.52 2.63,0 5.02,-0.06 7.41,0.06 0.39,0.02 0.86,0.7 1.1,1.17 2.66,5.21 5.28,10.44 7.91,15.66 0.2,0.39 0.41,0.77 0.75,1.39 1.19,-2.35 2.28,-4.49 3.35,-6.62 1.8,-3.56 3.61,-7.11 5.37,-10.7 0.35,-0.71 0.76,-1 1.55,-0.98 2.2,0.05 4.41,0.02 6.89,0.02 -1.13,2.27 -2.13,4.28 -3.14,6.3 -3.26,6.48 -6.52,12.96 -9.74,19.46 -0.29,0.58 -0.41,1.3 -0.42,1.95 -0.04,3.22 -0.02,6.44 -0.02,9.67l0 1.6z"/>
    <path class="fil0" d="M513.94 63.73l0 -1.68c0,-9.58 -0.03,-19.16 0.03,-28.73 0.01,-1.29 -0.39,-1.61 -1.61,-1.58 -3.17,0.07 -6.35,0 -9.53,0.04 -0.86,0.01 -1.23,-0.24 -1.2,-1.16 0.06,-1.58 0.04,-3.17 0.01,-4.76 -0.02,-0.72 0.18,-1.08 0.99,-1.08 9.99,0.02 19.97,0.02 29.96,0.03 0.13,0 0.25,0.07 0.45,0.13l0 6.8 -11.63 0 0 31.98 -7.46 0z"/>
    <path class="fil0" d="M590.28 56.89l18.43 0 0 6.9c-0.48,0.02 -0.96,0.06 -1.44,0.07 -6.35,0 -12.7,-0.02 -19.06,0.02 -1,0.01 -1.46,-0.39 -2.04,-1.16 -2.87,-3.8 -3.69,-7.99 -3.5,-12.73 0.31,-7.79 0.09,-15.61 0.09,-23.41l0 -1.77c2.38,0 4.59,-0.04 6.8,0.05 0.25,0.01 0.67,0.73 0.68,1.13 0.06,3.59 0.04,7.17 0.04,10.76l0 18.52 0 1.63z"/>
    <path class="fil0" d="M561 63.79l-7.4 0 0 -38.97c2.28,0 4.57,-0.01 6.86,0.03 0.2,0 0.47,0.34 0.57,0.59 0.1,0.23 0.03,0.54 0.03,0.81 0,12.06 0,24.12 0,36.18 0,0.4 -0.04,0.8 -0.06,1.37z"/>
   </g>
   <polygon class="fil0" points="252.85,232.05 604.96,232.05 604.96,232.99 252.85,232.99 "/>
  </g>
 </g>
</svg>
